<svg xmlns="http://www.w3.org/2000/svg" width="341.574" height="320.862" viewBox="0 0 341.574 320.862">
  <g id="Grupo_467" data-name="Grupo 467" transform="translate(3986 5596)">
    <g id="Landing_page-amico" data-name="Landing page-amico" transform="translate(-3986 -5596)">
      <g id="freepik--Floor--inject-32" transform="translate(0 123.011)">
        <path id="Trazado_1045" data-name="Trazado 1045" d="M310.835,237.771c-66.909-38.634-175-38.634-241.52,0s-66.131,101.265.742,139.9,175.056,38.634,241.535,0S377.752,276.427,310.835,237.771Z" transform="translate(-19.664 -208.795)" fill="#f5f5f5"/>
      </g>
      <g id="freepik--Shadows--inject-32" transform="translate(17.23 156.807)">
        <path id="Trazado_1046" data-name="Trazado 1046" d="M46.63,356.972c4.946-2.862,12.947-2.862,17.864,0s4.887,7.49-.059,10.344-12.947,2.862-17.864,0S41.676,359.827,46.63,356.972Z" transform="translate(-42.899 -280.333)" fill="#e0e0e0"/>
        <path id="Trazado_1047" data-name="Trazado 1047" d="M437.758,329.425c5.191-2.966,13.578-2.966,18.739,0s5.124,7.853-.059,10.849-13.585,2.966-18.739,0S432.567,332.42,437.758,329.425Z" transform="translate(-143.943 -273.193)" fill="#e0e0e0"/>
        <path id="Trazado_1048" data-name="Trazado 1048" d="M259.645,259.019,69.543,370.028l-8.053-4.649,190.1-111.009Z" transform="translate(-47.704 -254.37)" fill="#e0e0e0"/>
        <path id="Trazado_1049" data-name="Trazado 1049" d="M358.2,337.2c-18.539-10.7-48.475-10.7-66.88,0-16.269,9.447-18.071,24.085-5.495,34.749-10.152-.63-20.667,1.305-28.416,5.806-13.607,7.9-13.533,20.726.156,28.631s35.824,7.9,49.424,0c10.827-6.288,12.984-15.691,6.518-23.247,15.572,2.225,32.761-.141,44.908-7.2C376.835,365.263,376.731,347.918,358.2,337.2Z" transform="translate(-95.715 -273.705)" fill="#e0e0e0"/>
      </g>
      <g id="freepik--Pictures--inject-32" transform="translate(38.676 0)">
        <path id="Trazado_1050" data-name="Trazado 1050" d="M105.023,93.27,79.01,108.294l.059,19.881,26.013-15.024Z" transform="translate(-73.678 -55.926)" fill="none"/>
        <path id="Trazado_1051" data-name="Trazado 1051" d="M114.09,92.787l.059,19.881,2.41,1.4L116.493,91.4Z" transform="translate(-82.745 -55.443)" fill="#f0f0f0"/>
        <path id="Trazado_1052" data-name="Trazado 1052" d="M79.09,135.1l.007,2.788,28.416-16.41-2.41-1.4Z" transform="translate(-73.699 -62.855)" fill="#f5f5f5"/>
        <path id="Trazado_1053" data-name="Trazado 1053" d="M109.314,84.63,75.07,104.4l.082,29.358,34.244-19.77Zm-31.256,44.1v-2.788l-.074-19.881L104,91.037l2.4-1.387.067,22.669Z" transform="translate(-72.66 -53.693)" fill="#e0e0e0"/>
        <path id="Trazado_1054" data-name="Trazado 1054" d="M108.474,84.142l-2.41-1.4L71.82,102.51l2.41,1.4Z" transform="translate(-71.82 -53.204)" fill="#f5f5f5"/>
        <path id="Trazado_1055" data-name="Trazado 1055" d="M71.82,109.4l.082,29.358,2.41,1.4L74.23,110.8Z" transform="translate(-71.82 -60.095)" fill="#f0f0f0"/>
        <path id="Trazado_1056" data-name="Trazado 1056" d="M389.629,169.56l26.013,15.024-.052,19.881L389.57,189.448Z" transform="translate(-153.945 -75.644)" fill="none"/>
        <path id="Trazado_1057" data-name="Trazado 1057" d="M388.789,169.077l-.059,19.888-2.41,1.394.067-22.669Z" transform="translate(-153.105 -75.16)" fill="#f0f0f0"/>
        <path id="Trazado_1058" data-name="Trazado 1058" d="M414.751,211.4l-.007,2.788-28.423-16.41,2.41-1.394Z" transform="translate(-153.105 -82.576)" fill="#f5f5f5"/>
        <path id="Trazado_1059" data-name="Trazado 1059" d="M382.39,190.278l34.237,19.77.082-29.358-34.237-19.77Zm2.922-1.668.059-22.669,2.4,1.387,26.013,15.024-.052,19.881v2.788Z" transform="translate(-152.089 -73.411)" fill="#e0e0e0"/>
        <path id="Trazado_1060" data-name="Trazado 1060" d="M382.5,160.432l2.41-1.4,34.237,19.77-2.41,1.4Z" transform="translate(-152.118 -72.922)" fill="#f5f5f5"/>
        <path id="Trazado_1061" data-name="Trazado 1061" d="M431.051,185.69l-.082,29.358-2.41,1.4.082-29.358Z" transform="translate(-164.022 -79.813)" fill="#f0f0f0"/>
        <path id="Trazado_1062" data-name="Trazado 1062" d="M168.3,109.65h0l.934-.46h0Z" transform="translate(-96.756 -60.041)" fill="none"/>
        <path id="Trazado_1063" data-name="Trazado 1063" d="M167.84,109.943h0l.341-.163h0Z" transform="translate(-96.637 -60.193)" fill="none"/>
        <path id="Trazado_1064" data-name="Trazado 1064" d="M177.611,57.56,170.5,61.668l-7.23,4.175,7.23-4.175Z" transform="translate(-95.456 -46.696)" fill="none"/>
        <path id="Trazado_1065" data-name="Trazado 1065" d="M182.687,84.786l-.015-6.6-.022-6.036.022,6.036Z" transform="translate(-100.465 -50.467)" fill="none"/>
        <path id="Trazado_1066" data-name="Trazado 1066" d="M169.56,109.156l.2-.1Z" transform="translate(-97.082 -60.007)" fill="none"/>
        <path id="Trazado_1067" data-name="Trazado 1067" d="M182.8,124.6l-.015-5.517-.015-4.835.015,4.835Z" transform="translate(-100.496 -61.348)" fill="none"/>
        <path id="Trazado_1068" data-name="Trazado 1068" d="M164.12,111.165q1.364-.489,2.759-1.135h0A28.669,28.669,0,0,1,164.12,111.165Z" transform="translate(-95.676 -60.258)" fill="none"/>
        <path id="Trazado_1069" data-name="Trazado 1069" d="M154.12,85.03l.059,21.2.037,12.287-.037-12.287Z" transform="translate(-93.091 -53.796)" fill="none"/>
        <path id="Trazado_1070" data-name="Trazado 1070" d="M175.427,119.077V114.25l-.222.126-.4.237a50.491,50.491,0,0,0-10.478,9.2c-.556.6-1.1,1.216-1.639,1.832-2.81,3.218-5.554,6.629-8.387,9.818v7.8l3.4-1.965a74.941,74.941,0,0,1,17.723-22.224Z" transform="translate(-93.138 -61.348)" fill="#ebebeb"/>
        <path id="Trazado_1071" data-name="Trazado 1071" d="M180.317,134.661V128.21a40.927,40.927,0,0,0-7.237,10.641Z" transform="translate(-97.991 -64.956)" fill="#ebebeb"/>
        <path id="Trazado_1072" data-name="Trazado 1072" d="M169.4,136.926a40.925,40.925,0,0,1,7.237-10.641V120.76a74.94,74.94,0,0,0-17.715,22.246l10.493-6.058Z" transform="translate(-94.332 -63.031)" fill="#fafafa"/>
        <path id="Trazado_1073" data-name="Trazado 1073" d="M167.84,110h0" transform="translate(-96.637 -60.25)" fill="none" stroke="gray" stroke-linecap="round" stroke-linejoin="round" stroke-width="0"/>
        <path id="Trazado_1074" data-name="Trazado 1074" d="M168.3,109.81h0" transform="translate(-96.756 -60.201)" fill="none" stroke="gray" stroke-linecap="round" stroke-linejoin="round" stroke-width="0"/>
        <path id="Trazado_1075" data-name="Trazado 1075" d="M161.039,104.866l.5-.171q1.364-.489,2.759-1.135l.341-.163.934-.46c.541-.274,1.075-.564,1.617-.868-.541.3-1.075.593-1.617.868l.2-.1c.467-.245.942-.5,1.416-.742l.3-.171.252-.148a51.785,51.785,0,0,0,7.282-5.191l.311-.274V88.159c-5.191,2.647-10.27,3.47-14.379,2.225A12.606,12.606,0,0,1,154.12,85l.059,21.2A24.813,24.813,0,0,0,161.039,104.866Z" transform="translate(-93.091 -53.788)" fill="#fafafa"/>
        <path id="Trazado_1076" data-name="Trazado 1076" d="M164.288,122.188a50.491,50.491,0,0,1,10.478-9.2l.4-.237.222-.126V107.95a101.175,101.175,0,0,0-19.11,14.519c-.69.66-1.379,1.327-2.069,1.973v9.4c2.833-3.189,5.576-6.6,8.387-9.818C163.19,123.4,163.731,122.818,164.288,122.188Z" transform="translate(-93.114 -59.72)" fill="#fafafa"/>
        <path id="Trazado_1077" data-name="Trazado 1077" d="M175.376,105.994V100.24l-.311.274a51.78,51.78,0,0,1-7.282,5.191l-.252.148-.3.171c-.475.267-.949.526-1.416.742l-.2.1-.126.067h0l.126-.067-.934.46-.341.163q-1.387.645-2.758,1.135l.519-.193-.519.193-.5.171a24.812,24.812,0,0,1-6.859,1.357l.037,12.287c.69-.645,1.379-1.313,2.069-1.973A101.174,101.174,0,0,1,175.376,105.994Z" transform="translate(-93.117 -57.727)" fill="#ebebeb"/>
        <path id="Trazado_1078" data-name="Trazado 1078" d="M177.671,75.847V69.811A10.08,10.08,0,0,1,170.53,63.1l-7.23,4.175A14.942,14.942,0,0,0,177.671,75.847Z" transform="translate(-95.464 -48.128)" fill="#fafafa"/>
        <path id="Trazado_1079" data-name="Trazado 1079" d="M160.927,86.087c4.108,1.275,9.2.452,14.378-2.225v-6.6a14.942,14.942,0,0,1-14.393-8.572l-6.822,3.938v8.157a12.606,12.606,0,0,0,6.837,5.3Z" transform="translate(-93.083 -49.573)" fill="#ebebeb"/>
        <path id="Trazado_1080" data-name="Trazado 1080" d="M176.007,54.79,152.47,68.382l.178,61.548,23.537-13.585ZM153.834,127.9V110.7L153.8,98.415l-.1-21.223V69.035L160.5,65.1l7.193-4.153,7.111-4.108v58.841l-7.26,4.19h0l-10.493,6.058Z" transform="translate(-92.665 -45.98)" fill="#fff"/>
        <path id="Trazado_1081" data-name="Trazado 1081" d="M169.36,109.29h0" transform="translate(-97.03 -60.066)" fill="none" stroke="gray" stroke-linecap="round" stroke-linejoin="round" stroke-width="0"/>
        <path id="Trazado_1082" data-name="Trazado 1082" d="M169.39,109.257l.126-.067" transform="translate(-97.038 -60.041)" fill="none" stroke="gray" stroke-linecap="round" stroke-linejoin="round" stroke-width="0"/>
        <path id="Trazado_1083" data-name="Trazado 1083" d="M171.177,108c-.541.3-1.075.593-1.617.868" transform="translate(-97.082 -59.733)" fill="none" stroke="gray" stroke-linecap="round" stroke-linejoin="round" stroke-width="0"/>
        <line id="Línea_115" data-name="Línea 115" transform="translate(72.478 49.149)" fill="none" stroke="gray" stroke-linecap="round" stroke-linejoin="round" stroke-width="0"/>
        <path id="Trazado_1084" data-name="Trazado 1084" d="M164.12,111.493l.519-.193" transform="translate(-95.676 -60.586)" fill="none" stroke="gray" stroke-linecap="round" stroke-linejoin="round" stroke-width="0"/>
        <path id="Trazado_1085" data-name="Trazado 1085" d="M180.156,68.379V57.56L173,61.668A10.169,10.169,0,0,0,180.156,68.379Z" transform="translate(-97.971 -46.696)" fill="#ebebeb"/>
        <path id="Trazado_1086" data-name="Trazado 1086" d="M176.247,137.82,152.71,151.412v1.639l24.945-14.408Z" transform="translate(-92.727 -67.44)" fill="#cacaca"/>
        <path id="Trazado_1087" data-name="Trazado 1087" d="M184.21,54.508l.178,61.57,1.409.823-.178-63.2Z" transform="translate(-100.868 -45.699)" fill="#f0f0f0"/>
        <path id="Trazado_1088" data-name="Trazado 1088" d="M179.876,44.86,147.33,63.643l.208,71.93,32.539-18.791ZM151.32,129.025v-1.639l-.178-61.548,23.537-13.592,1.409-.808.185,63.2Z" transform="translate(-91.336 -43.414)" fill="#e0e0e0"/>
        <path id="Trazado_1089" data-name="Trazado 1089" d="M178.943,44.356l-2.684-1.446L143.72,61.7l2.684,1.439Z" transform="translate(-90.403 -42.91)" fill="#f5f5f5"/>
        <path id="Trazado_1090" data-name="Trazado 1090" d="M143.72,68.25l.2,71.93,2.684,1.439-.2-71.93Z" transform="translate(-90.403 -49.459)" fill="#f0f0f0"/>
        <path id="Trazado_1091" data-name="Trazado 1091" d="M97.2,103.45l7.089,5.584.015,5.458-23.6,13.63-.015-5.458,4.5-8.936,4.034,3.137L87.8,121.3l2.069-3.938Z" transform="translate(-74.113 -58.557)" fill="#e0e0e0"/>
        <path id="Trazado_1092" data-name="Trazado 1092" d="M91.792,107.064c1.112-.638,2.017-.126,2.024,1.149a4.449,4.449,0,0,1-2.01,3.47c-1.112.645-2.01.126-2.017-1.149A4.449,4.449,0,0,1,91.792,107.064Z" transform="translate(-76.465 -59.42)" fill="#e0e0e0"/>
        <path id="Trazado_1093" data-name="Trazado 1093" d="M398.321,179.74l-7.1,5.591-.015,5.458,23.6,13.622.015-5.458-4.494-8.936-4.041,3.137,1.431,4.434-2.076-3.938Z" transform="translate(-154.369 -78.275)" fill="#e0e0e0"/>
        <path id="Trazado_1094" data-name="Trazado 1094" d="M410.547,183.354c-1.112-.638-2.017-.126-2.017,1.149a4.449,4.449,0,0,0,2,3.478c1.112.638,2.017.126,2.017-1.157A4.405,4.405,0,0,0,410.547,183.354Z" transform="translate(-158.845 -79.138)" fill="#e0e0e0"/>
      </g>
      <g id="freepik--Plants--inject-32" transform="translate(2.37 152.412)">
        <path id="Trazado_1095" data-name="Trazado 1095" d="M43.736,335.54l11.983.356L67.7,335.54c.519,8.1-1.06,16.314-3.241,20.37h0a5.5,5.5,0,0,1-2.373,2.417,14.183,14.183,0,0,1-12.769,0,5.361,5.361,0,0,1-2.373-2.477C44.789,351.795,43.224,343.593,43.736,335.54Z" transform="translate(-28.23 -270.954)" fill="#fff"/>
        <path id="Trazado_1096" data-name="Trazado 1096" d="M47.308,328.221c-4.694,2.707-4.716,7.1-.052,9.811s12.25,2.714,16.944,0,4.724-7.1.059-9.811S52.009,325.507,47.308,328.221Z" transform="translate(-28.265 -268.537)" fill="#ebebeb"/>
        <path id="Trazado_1097" data-name="Trazado 1097" d="M50.085,329.828c-3.663,2.113-3.708,5.547-.044,7.66a14.579,14.579,0,0,0,13.222,0c3.663-2.113,3.708-5.547.044-7.66A14.579,14.579,0,0,0,50.085,329.828Z" transform="translate(-29.181 -269.068)" fill="#e0e0e0"/>
        <g id="Grupo_207" data-name="Grupo 207" transform="translate(18.134 59.175)" opacity="0.15">
          <path id="Trazado_1098" data-name="Trazado 1098" d="M50.085,329.828c-3.663,2.113-3.708,5.547-.044,7.66a14.579,14.579,0,0,0,13.222,0c3.663-2.113,3.708-5.547.044-7.66A14.579,14.579,0,0,0,50.085,329.828Z" transform="translate(-47.315 -328.243)"/>
        </g>
        <path id="Trazado_1099" data-name="Trazado 1099" d="M33.36,266.59c27.007,8.839,27.252,26.9,21.164,39.769-1.535,2.61-6.184,4-10.226-12l7.1.912-8.268-4.19-2.15-6.392,6.9.512-8.75-3.708A129.765,129.765,0,0,0,33.36,266.59Z" transform="translate(-25.574 -253.133)" fill="#e84e0e"/>
        <path id="Trazado_1100" data-name="Trazado 1100" d="M33.36,266.59c27.007,8.839,27.252,26.9,21.164,39.769-1.535,2.61-6.184,4-10.226-12l7.1.912-8.268-4.19-2.15-6.392,6.9.512-8.75-3.708A129.765,129.765,0,0,0,33.36,266.59Z" transform="translate(-25.574 -253.133)" opacity="0.2"/>
        <path id="Trazado_1101" data-name="Trazado 1101" d="M33.36,266.59c27.007,8.839,27.252,26.9,21.164,39.769-1.535,2.61-6.184,4-10.226-12l7.1.912-8.268-4.19-2.15-6.392,6.9.512-8.75-3.708A129.765,129.765,0,0,0,33.36,266.59Z" transform="translate(-25.574 -253.133)" fill="#fff" opacity="0.2"/>
        <path id="Trazado_1102" data-name="Trazado 1102" d="M43.66,272.68c14.245,10.812,15.528,23.225,11.509,36.135C56.592,297.425,58.127,285.909,43.66,272.68Z" transform="translate(-28.236 -254.707)" fill="#fff"/>
        <path id="Trazado_1103" data-name="Trazado 1103" d="M85.466,291.34c-26.621,3.745-29.854,20.526-26.317,33.525.994,2.677,5.087,4.753,11.516-9.477l-6.741-.334,8.394-2.529,3.063-5.621-6.5-.667,8.758-1.973A121.29,121.29,0,0,1,85.466,291.34Z" transform="translate(-31.934 -259.53)" fill="#e84e0e"/>
        <path id="Trazado_1104" data-name="Trazado 1104" d="M85.466,291.34c-26.621,3.745-29.854,20.526-26.317,33.525.994,2.677,5.087,4.753,11.516-9.477l-6.741-.334,8.394-2.529,3.063-5.621-6.5-.667,8.758-1.973A121.29,121.29,0,0,1,85.466,291.34Z" transform="translate(-31.934 -259.53)" fill="#fff" opacity="0.2"/>
        <path id="Trazado_1105" data-name="Trazado 1105" d="M85.466,291.34c-26.621,3.745-29.854,20.526-26.317,33.525.994,2.677,5.087,4.753,11.516-9.477l-6.741-.334,8.394-2.529,3.063-5.621-6.5-.667,8.758-1.973A121.29,121.29,0,0,1,85.466,291.34Z" transform="translate(-31.934 -259.53)" opacity="0.1"/>
        <path id="Trazado_1106" data-name="Trazado 1106" d="M78.486,295.3c-15.061,7.7-18.316,19.058-16.714,31.745C62.335,316.2,62.817,305.214,78.486,295.3Z" transform="translate(-32.821 -260.554)" fill="#fff"/>
        <path id="Trazado_1107" data-name="Trazado 1107" d="M22.86,299.82c24.412.4,29.2,15.165,27.437,27.267-.593,2.529-4.056,4.857-11.435-7.245l6.051-1.06-7.853-1.335-3.389-4.724,5.784-1.327-8.112-.8A111.383,111.383,0,0,0,22.86,299.82Z" transform="translate(-22.86 -261.722)" fill="#e84e0e"/>
        <path id="Trazado_1108" data-name="Trazado 1108" d="M32.86,302.2C47.29,307.457,51.5,317.3,51.5,328.94,49.752,319.233,48.091,309.385,32.86,302.2Z" transform="translate(-25.445 -262.337)" fill="#fff"/>
        <path id="Trazado_1109" data-name="Trazado 1109" d="M22.86,299.82c24.412.4,29.2,15.165,27.437,27.267-.593,2.529-4.056,4.857-11.435-7.245l6.051-1.06-7.853-1.335-3.389-4.724,5.784-1.327-8.112-.8A111.383,111.383,0,0,0,22.86,299.82Z" transform="translate(-22.86 -261.722)" fill="#fff" opacity="0.2"/>
        <path id="Trazado_1110" data-name="Trazado 1110" d="M434.731,306.94l12.562.371,12.606-.371c.541,8.491-1.112,17.137-3.4,21.364h0a5.725,5.725,0,0,1-2.484,2.529,14.66,14.66,0,0,1-13.348,0,5.569,5.569,0,0,1-2.484-2.6C435.828,323.988,434.16,315.386,434.731,306.94Z" transform="translate(-129.282 -263.562)" fill="#fff"/>
        <path id="Trazado_1111" data-name="Trazado 1111" d="M438.476,299.257c-4.924,2.848-4.953,7.452-.059,10.3s12.851,2.84,17.8,0,4.946-7.452.059-10.3S443.4,296.416,438.476,299.257Z" transform="translate(-129.32 -261.025)" fill="#ebebeb"/>
        <path id="Trazado_1112" data-name="Trazado 1112" d="M441.391,300.95c-3.841,2.225-3.863,5.814-.052,8.031a15.263,15.263,0,0,0,13.867,0c3.841-2.225,3.863-5.814.044-8.031A15.27,15.27,0,0,0,441.391,300.95Z" transform="translate(-130.284 -261.584)" fill="#e0e0e0"/>
        <g id="Grupo_208" data-name="Grupo 208" transform="translate(308.211 37.703)" opacity="0.15">
          <path id="Trazado_1113" data-name="Trazado 1113" d="M441.391,300.95c-3.841,2.225-3.863,5.814-.052,8.031a15.263,15.263,0,0,0,13.867,0c3.841-2.225,3.863-5.814.044-8.031A15.27,15.27,0,0,0,441.391,300.95Z" transform="translate(-438.495 -299.287)"/>
        </g>
        <path id="Trazado_1114" data-name="Trazado 1114" d="M454.706,266.1c2.039-2.536,4.412-4.813,6.288-7.482,1.283-1.824,2.351-4.049,1.809-6.207a5.562,5.562,0,0,0-4.4-3.878,8.439,8.439,0,0,0-5.932,1.32,18.007,18.007,0,0,0-4.449,4.249,44.352,44.352,0,0,0-9.343,31.664,6.674,6.674,0,0,0,1.172,3.641,3.626,3.626,0,0,0,3.752,1.149c3.426-1.016,2.966-5.643,3.53-8.357a37.886,37.886,0,0,1,7.556-16.1Z" transform="translate(-130.281 -248.443)" fill="#e84e0e"/>
        <path id="Trazado_1115" data-name="Trazado 1115" d="M454.706,266.1c2.039-2.536,4.412-4.813,6.288-7.482,1.283-1.824,2.351-4.049,1.809-6.207a5.562,5.562,0,0,0-4.4-3.878,8.439,8.439,0,0,0-5.932,1.32,18.007,18.007,0,0,0-4.449,4.249,44.352,44.352,0,0,0-9.343,31.664,6.674,6.674,0,0,0,1.172,3.641,3.626,3.626,0,0,0,3.752,1.149c3.426-1.016,2.966-5.643,3.53-8.357a37.886,37.886,0,0,1,7.556-16.1Z" transform="translate(-130.281 -248.443)" fill="#fff" opacity="0.2"/>
        <path id="Trazado_1116" data-name="Trazado 1116" d="M445,288.159a.3.3,0,0,0,.245-.282c.237-5.495,2.024-24.248,14.949-34.853a.3.3,0,0,0,.044-.423.3.3,0,0,0-.423-.045c-13.118,10.8-14.927,29.773-15.172,35.334a.3.3,0,0,0,.289.311Z" transform="translate(-131.872 -249.49)" fill="#f0f0f0"/>
        <path id="Trazado_1117" data-name="Trazado 1117" d="M442.438,293.907a9.15,9.15,0,0,0,4.2,5.814,11.8,11.8,0,0,0,6.347,1.068,28.086,28.086,0,0,0,6.451-1.528c1.031-.349,2.188-.823,2.3-2.106a2.284,2.284,0,0,0-.742-1.809,8.463,8.463,0,0,0-.667-.578.66.66,0,0,1,.349-1.187,15.375,15.375,0,0,0,1.839-.23,8.076,8.076,0,0,0,3.856-1.743,6.459,6.459,0,0,0,1.787-2.64,2.465,2.465,0,0,0-.26-2.588,2.787,2.787,0,0,0-1.424-.623c-.46-.1-.919-.185-1.387-.26a.616.616,0,0,1-.141-1.172l1.95-.808a3.664,3.664,0,0,0,1.483-.919,3.211,3.211,0,0,0,.378-2.684c-.237-1.224-.66-2.4-.949-3.611a7.757,7.757,0,0,1-.126-3.708,30.948,30.948,0,0,0-10.923.742,7.859,7.859,0,0,0-2.966,1.305,4.375,4.375,0,0,0-1.4,4.012.282.282,0,0,1-.526.148l-1.261-2.247a1.483,1.483,0,0,0-1.943-.623,8.973,8.973,0,0,0-2.847,2.225A4.939,4.939,0,0,0,444.6,281.8a31.889,31.889,0,0,0,.9,5.354.489.489,0,0,1-.742.519l-.059-.037a1.654,1.654,0,0,0-1.179-.341c-1.1.134-1.379,1.246-1.483,2.225a18.544,18.544,0,0,0,.4,4.382Z" transform="translate(-131.198 -254.637)" fill="#e84e0e"/>
        <path id="Trazado_1118" data-name="Trazado 1118" d="M442.438,293.907a9.15,9.15,0,0,0,4.2,5.814,11.8,11.8,0,0,0,6.347,1.068,28.086,28.086,0,0,0,6.451-1.528c1.031-.349,2.188-.823,2.3-2.106a2.284,2.284,0,0,0-.742-1.809,8.463,8.463,0,0,0-.667-.578.66.66,0,0,1,.349-1.187,15.375,15.375,0,0,0,1.839-.23,8.076,8.076,0,0,0,3.856-1.743,6.459,6.459,0,0,0,1.787-2.64,2.465,2.465,0,0,0-.26-2.588,2.787,2.787,0,0,0-1.424-.623c-.46-.1-.919-.185-1.387-.26a.616.616,0,0,1-.141-1.172l1.95-.808a3.664,3.664,0,0,0,1.483-.919,3.211,3.211,0,0,0,.378-2.684c-.237-1.224-.66-2.4-.949-3.611a7.757,7.757,0,0,1-.126-3.708,30.948,30.948,0,0,0-10.923.742,7.859,7.859,0,0,0-2.966,1.305,4.375,4.375,0,0,0-1.4,4.012.282.282,0,0,1-.526.148l-1.261-2.247a1.483,1.483,0,0,0-1.943-.623,8.973,8.973,0,0,0-2.847,2.225A4.939,4.939,0,0,0,444.6,281.8a31.889,31.889,0,0,0,.9,5.354.489.489,0,0,1-.742.519l-.059-.037a1.654,1.654,0,0,0-1.179-.341c-1.1.134-1.379,1.246-1.483,2.225a18.544,18.544,0,0,0,.4,4.382Z" transform="translate(-131.198 -254.637)" opacity="0.2"/>
        <path id="Trazado_1119" data-name="Trazado 1119" d="M442.438,293.907a9.15,9.15,0,0,0,4.2,5.814,11.8,11.8,0,0,0,6.347,1.068,28.086,28.086,0,0,0,6.451-1.528c1.031-.349,2.188-.823,2.3-2.106a2.284,2.284,0,0,0-.742-1.809,8.463,8.463,0,0,0-.667-.578.66.66,0,0,1,.349-1.187,15.375,15.375,0,0,0,1.839-.23,8.076,8.076,0,0,0,3.856-1.743,6.459,6.459,0,0,0,1.787-2.64,2.465,2.465,0,0,0-.26-2.588,2.787,2.787,0,0,0-1.424-.623c-.46-.1-.919-.185-1.387-.26a.616.616,0,0,1-.141-1.172l1.95-.808a3.664,3.664,0,0,0,1.483-.919,3.211,3.211,0,0,0,.378-2.684c-.237-1.224-.66-2.4-.949-3.611a7.757,7.757,0,0,1-.126-3.708,30.948,30.948,0,0,0-10.923.742,7.859,7.859,0,0,0-2.966,1.305,4.375,4.375,0,0,0-1.4,4.012.282.282,0,0,1-.526.148l-1.261-2.247a1.483,1.483,0,0,0-1.943-.623,8.973,8.973,0,0,0-2.847,2.225A4.939,4.939,0,0,0,444.6,281.8a31.889,31.889,0,0,0,.9,5.354.489.489,0,0,1-.742.519l-.059-.037a1.654,1.654,0,0,0-1.179-.341c-1.1.134-1.379,1.246-1.483,2.225a18.544,18.544,0,0,0,.4,4.382Z" transform="translate(-131.198 -254.637)" fill="#fff" opacity="0.2"/>
        <path id="Trazado_1120" data-name="Trazado 1120" d="M450.388,300.022a43.84,43.84,0,0,1,2.966-8.513.3.3,0,0,1,.1-.222l.2-.445a27.518,27.518,0,0,0-2.907-9.744.3.3,0,1,1,.519-.3,27.92,27.92,0,0,1,2.87,9.062,39.659,39.659,0,0,1,12.606-15.076.289.289,0,0,1,.415.074.3.3,0,0,1-.074.415,39.516,39.516,0,0,0-12.725,15.572,18.339,18.339,0,0,1,10.382-1.409.3.3,0,0,1,.237.349.289.289,0,0,1-.237.237h-.111a17.916,17.916,0,0,0-10.715,1.713,43.643,43.643,0,0,0-2.944,8.409.289.289,0,0,1-.237.23h-.119a.289.289,0,0,1-.23-.349Z" transform="translate(-133.356 -255.235)" fill="#f0f0f0"/>
      </g>
      <g id="freepik--landing-page--inject-32" transform="translate(30.697 0.128)">
        <path id="Trazado_1121" data-name="Trazado 1121" d="M66.617,217.369l-.03-10.582L61.07,203.65l.03,10.33h0v.237l5.517,3.152Z" transform="translate(-61.063 -84.582)" fill="#e84e0e"/>
        <path id="Trazado_1122" data-name="Trazado 1122" d="M66.956,343.577l-.349-122.525L61.09,217.9l.341,122.3a2.321,2.321,0,0,0,.927,2.069h0l5.443,3.322A2.291,2.291,0,0,1,66.956,343.577Z" transform="translate(-61.068 -88.265)" fill="#e84e0e"/>
        <path id="Trazado_1123" data-name="Trazado 1123" d="M66.956,343.577l-.349-122.525L61.09,217.9l.341,122.3a2.321,2.321,0,0,0,.927,2.069h0l5.443,3.322A2.291,2.291,0,0,1,66.956,343.577Z" transform="translate(-61.068 -88.265)" fill="#fff" opacity="0.2"/>
        <path id="Trazado_1124" data-name="Trazado 1124" d="M73.218,389.9a4.043,4.043,0,0,1-.638.3A4.043,4.043,0,0,0,73.218,389.9Z" transform="translate(-64.037 -132.72)" fill="#455a64"/>
        <path id="Trazado_1125" data-name="Trazado 1125" d="M71.953,390.44h0Z" transform="translate(-63.841 -132.86)" fill="#455a64"/>
        <path id="Trazado_1126" data-name="Trazado 1126" d="M70.45,390.28Z" transform="translate(-63.487 -132.818)" fill="#455a64"/>
        <path id="Trazado_1127" data-name="Trazado 1127" d="M66.607,165.265v-6.088a7.2,7.2,0,0,1,3.233-5.665l184.644-106.6a2.336,2.336,0,0,1,2.284-.245l-5.45-3.344h0a2.269,2.269,0,0,0-2.358.193L64.315,150.115a7.178,7.178,0,0,0-3.255,5.651v6.1h0v.237l5.517,3.144Z" transform="translate(-61.06 -43.083)" fill="#e84e0e"/>
        <path id="Trazado_1128" data-name="Trazado 1128" d="M66.607,165.265v-6.088a7.2,7.2,0,0,1,3.233-5.665l184.644-106.6a2.336,2.336,0,0,1,2.284-.245l-5.45-3.344h0a2.269,2.269,0,0,0-2.358.193L64.315,150.115a7.178,7.178,0,0,0-3.255,5.651v6.1h0v.237l5.517,3.144Z" transform="translate(-61.06 -43.083)" fill="#fff" opacity="0.3"/>
        <path id="Trazado_1129" data-name="Trazado 1129" d="M66.617,217.369l-.03-10.582L61.07,203.65l.03,10.33h0v.237l5.517,3.152Z" transform="translate(-61.063 -84.582)" opacity="0.2"/>
        <path id="Trazado_1130" data-name="Trazado 1130" d="M66.617,217.369l-.03-10.582L61.07,203.65l.03,10.33h0v.237l5.517,3.152Z" transform="translate(-61.063 -84.582)" fill="#fff" opacity="0.2"/>
        <path id="Trazado_1131" data-name="Trazado 1131" d="M256.41,48.115c1.8-1.038,3.27-.2,3.278,1.876v6.1L68.54,166.45v-6.088a7.2,7.2,0,0,1,3.233-5.665Z" transform="translate(-62.993 -44.268)" fill="#e84e0e"/>
        <path id="Trazado_1132" data-name="Trazado 1132" d="M304.593,61.785c.964-.564,1.75-.111,1.75.994A3.826,3.826,0,0,1,304.6,65.8c-.964.564-1.75.111-1.75-.994A3.8,3.8,0,0,1,304.593,61.785Z" transform="translate(-123.552 -47.854)" fill="#fff"/>
        <path id="Trazado_1133" data-name="Trazado 1133" d="M311.783,57.627c.964-.556,1.75-.1,1.75,1a3.8,3.8,0,0,1-1.743,3.018c-.964.556-1.75.111-1.75-1A3.849,3.849,0,0,1,311.783,57.627Z" transform="translate(-125.411 -46.78)" fill="#fff"/>
        <path id="Trazado_1134" data-name="Trazado 1134" d="M318.963,53.485c.971-.564,1.75-.111,1.757.994a3.848,3.848,0,0,1-1.743,3.033c-.964.564-1.75.111-1.757-.994A3.848,3.848,0,0,1,318.963,53.485Z" transform="translate(-127.267 -45.708)" fill="#fff"/>
        <path id="Trazado_1135" data-name="Trazado 1135" d="M106.984,141.141c.742-.415,1.387-.341,1.728.193l1.735,2.67c.349.534,1.009.608,1.728.193L259.682,59V69.6L68.55,180V169.4l5.665-3.27a4.368,4.368,0,0,0,1.728-2.188l1.706-4.657a4.294,4.294,0,0,1,1.72-2.18Z" transform="translate(-62.996 -47.197)" fill="#e0e0e0"/>
        <path id="Trazado_1136" data-name="Trazado 1136" d="M259.712,73.31l.349,122.532a7.171,7.171,0,0,1-3.255,5.636L72.176,308.075c-1.809,1.046-3.27.208-3.278-1.869L68.55,183.681Z" transform="translate(-62.996 -50.895)" fill="#e84e0e"/>
        <g id="Grupo_209" data-name="Grupo 209" transform="translate(5.554 22.415)" opacity="0.4">
          <path id="Trazado_1137" data-name="Trazado 1137" d="M259.712,73.31l.349,122.532a7.171,7.171,0,0,1-3.255,5.636L72.176,308.075c-1.809,1.046-3.27.208-3.278-1.869L68.55,183.681Z" transform="translate(-68.55 -73.31)" fill="#fff"/>
        </g>
        <path id="Trazado_1138" data-name="Trazado 1138" d="M258.953,67.709c1.283-.742,2.321-.148,2.328,1.327a5.117,5.117,0,0,1-2.314,4L97.186,166.467c-1.283.742-2.328.141-2.336-1.335a5.117,5.117,0,0,1,2.321-4Z" transform="translate(-69.793 -49.365)" fill="#fff"/>
        <path id="Trazado_1139" data-name="Trazado 1139" d="M71.993,209.138a.23.23,0,0,1,.245,0c.119.082.111.326,0,.541l-1.016,1.668,2.655-1.579a.2.2,0,0,1,.326.185.7.7,0,0,1-.326.571L71.2,212.067l1.023.489c.133.067.148.3,0,.512a.742.742,0,0,1-.237.267.259.259,0,0,1-.23,0l-1.639-.786-.067-.067h0v-.3h0l.059-.133,1.639-2.684A.6.6,0,0,1,71.993,209.138Z" transform="translate(-63.384 -85.992)" fill="#e0e0e0"/>
        <path id="Trazado_1140" data-name="Trazado 1140" d="M79.733,204.631a.245.245,0,0,1,.222,0l1.639.749.059.074h0v.334l-.052.133-1.631,2.684a.638.638,0,0,1-.222.222.215.215,0,0,1-.237,0c-.126-.074-.119-.319,0-.541l1.016-1.661-2.64,1.572A.2.2,0,0,1,77.56,208a.742.742,0,0,1,.319-.564l2.684-1.542-1.023-.489c-.141-.067-.141-.3,0-.526A.653.653,0,0,1,79.733,204.631Z" transform="translate(-65.325 -84.829)" fill="#e0e0e0"/>
        <path id="Trazado_1141" data-name="Trazado 1141" d="M87.274,200.1a1.483,1.483,0,0,1,1.112-.208l.245-.326a.616.616,0,0,1,.178-.163.311.311,0,0,1,.178,0c.111,0,.163.133.148.3l-.141,1.008a.742.742,0,0,1-.141.334.609.609,0,0,1-.178.163l-.082.037-.793.222a.185.185,0,0,1-.245-.171.63.63,0,0,1,.148-.452l.074-.1a1.031,1.031,0,0,0-.5.148A2.6,2.6,0,0,0,86.1,202.92c0,.742.534,1.053,1.186.675a2.536,2.536,0,0,0,1.031-1.29.742.742,0,0,1,.282-.363.334.334,0,0,1,.156-.044c.163,0,.222.208.133.437a4.026,4.026,0,0,1-1.6,1.958c-1.009.578-1.832.111-1.839-1.053a4.034,4.034,0,0,1,1.824-3.137Z" transform="translate(-67.364 -83.482)" fill="#e0e0e0"/>
        <g id="Grupo_210" data-name="Grupo 210" transform="translate(6.666 123.111)" opacity="0.3">
          <path id="Trazado_1142" data-name="Trazado 1142" d="M71.993,209.138a.23.23,0,0,1,.245,0c.119.082.111.326,0,.541l-1.016,1.668,2.655-1.579a.2.2,0,0,1,.326.185.7.7,0,0,1-.326.571L71.2,212.067l1.023.489c.133.067.148.3,0,.512a.742.742,0,0,1-.237.267.259.259,0,0,1-.23,0l-1.639-.786-.067-.067h0v-.3h0l.059-.133,1.639-2.684A.6.6,0,0,1,71.993,209.138Z" transform="translate(-70.05 -209.102)"/>
        </g>
        <g id="Grupo_211" data-name="Grupo 211" transform="translate(12.235 119.775)" opacity="0.3">
          <path id="Trazado_1143" data-name="Trazado 1143" d="M79.733,204.631a.245.245,0,0,1,.222,0l1.639.749.059.074h0v.334l-.052.133-1.631,2.684a.638.638,0,0,1-.222.222.215.215,0,0,1-.237,0c-.126-.074-.119-.319,0-.541l1.016-1.661-2.64,1.572A.2.2,0,0,1,77.56,208a.742.742,0,0,1,.319-.564l2.684-1.542-1.023-.489c-.141-.067-.141-.3,0-.526A.653.653,0,0,1,79.733,204.631Z" transform="translate(-77.56 -204.604)"/>
        </g>
        <g id="Grupo_212" data-name="Grupo 212" transform="translate(18.086 115.91)" opacity="0.3">
          <path id="Trazado_1144" data-name="Trazado 1144" d="M87.274,200.1a1.483,1.483,0,0,1,1.112-.208l.245-.326a.616.616,0,0,1,.178-.163.311.311,0,0,1,.178,0c.111,0,.163.133.148.3l-.141,1.008a.742.742,0,0,1-.141.334.609.609,0,0,1-.178.163l-.082.037-.793.222a.185.185,0,0,1-.245-.171.63.63,0,0,1,.148-.452l.074-.1a1.031,1.031,0,0,0-.5.148A2.6,2.6,0,0,0,86.1,202.92c0,.742.534,1.053,1.186.675a2.536,2.536,0,0,0,1.031-1.29.742.742,0,0,1,.282-.363.334.334,0,0,1,.156-.044c.163,0,.222.208.133.437a4.026,4.026,0,0,1-1.6,1.958c-1.009.578-1.832.111-1.839-1.053a4.034,4.034,0,0,1,1.824-3.137Z" transform="translate(-85.45 -199.392)"/>
        </g>
        <g id="Grupo_213" data-name="Grupo 213" transform="translate(81.458 54.48)" opacity="0.6">
          <path id="Trazado_1145" data-name="Trazado 1145" d="M277.685,120.31l.171,44.055a11.375,11.375,0,0,1-5.658,9.855L176.753,229.6a3.782,3.782,0,0,1-5.68-3.263l-.163-44.055a11.353,11.353,0,0,1,5.651-9.855L272,117.062a3.782,3.782,0,0,1,5.68,3.248Z" transform="translate(-170.91 -116.551)" fill="#fff"/>
        </g>
        <path id="Trazado_1146" data-name="Trazado 1146" d="M247.665,157.59l-19.154,36.38-5.421,10.307,3.73-11.605-10.56-8.2L204.5,207.837l.045,14.275,61.718-35.639-.044-14.275Z" transform="translate(-98.133 -72.678)" fill="#e84e0e"/>
        <path id="Trazado_1147" data-name="Trazado 1147" d="M233.58,179.134a11.59,11.59,0,0,0,5.243-9.084c0-3.337-2.373-4.687-5.28-3.011a11.568,11.568,0,0,0-5.243,9.084C228.307,179.43,230.673,180.81,233.58,179.134Z" transform="translate(-104.284 -74.934)" fill="#e84e0e"/>
        <g id="Grupo_214" data-name="Grupo 214" transform="translate(106.367 84.912)" opacity="0.3">
          <path id="Trazado_1148" data-name="Trazado 1148" d="M247.665,157.59l-19.154,36.38-5.421,10.307,3.73-11.605-10.56-8.2L204.5,207.837l.045,14.275,61.718-35.639-.044-14.275Z" transform="translate(-204.5 -157.59)" fill="#fff"/>
          <path id="Trazado_1149" data-name="Trazado 1149" d="M233.58,179.134a11.59,11.59,0,0,0,5.243-9.084c0-3.337-2.373-4.687-5.28-3.011a11.568,11.568,0,0,0-5.243,9.084C228.307,179.43,230.673,180.81,233.58,179.134Z" transform="translate(-210.651 -159.846)" fill="#fff"/>
        </g>
        <g id="Grupo_215" data-name="Grupo 215" transform="translate(81.458 148.471)" opacity="0.6">
          <path id="Trazado_1150" data-name="Trazado 1150" d="M221.4,245.013l.074,26.607a5.147,5.147,0,0,1-2.559,4.45L173.55,302.4a1.713,1.713,0,0,1-2.566-1.483L170.91,274.3a5.109,5.109,0,0,1,2.558-4.449l45.353-26.317a1.713,1.713,0,0,1,2.581,1.476Z" transform="translate(-170.91 -243.302)" fill="#fff"/>
        </g>
        <path id="Trazado_1151" data-name="Trazado 1151" d="M198.93,275.67l14.052,1.209-14,17.4Z" transform="translate(-96.694 -103.197)" fill="#e84e0e"/>
        <g id="Grupo_216" data-name="Grupo 216" transform="translate(102.236 172.473)" opacity="0.3">
          <path id="Trazado_1152" data-name="Trazado 1152" d="M198.93,275.67l14.052,1.209-14,17.4Z" transform="translate(-198.93 -275.67)" fill="#fff"/>
        </g>
        <g id="Grupo_217" data-name="Grupo 217" transform="translate(137.46 116.129)" opacity="0.6">
          <path id="Trazado_1153" data-name="Trazado 1153" d="M296.684,201.4l.074,26.607a5.124,5.124,0,0,1-2.558,4.449l-45.123,25.858a1.713,1.713,0,0,1-2.573-1.483l-.074-26.607a5.147,5.147,0,0,1,2.559-4.45l45.122-25.857a1.713,1.713,0,0,1,2.573,1.483Z" transform="translate(-246.43 -199.688)" fill="#fff"/>
        </g>
        <path id="Trazado_1154" data-name="Trazado 1154" d="M273.51,230.76l14.045,1.209-13.993,17.4Z" transform="translate(-115.969 -91.589)" fill="#e84e0e"/>
        <g id="Grupo_218" data-name="Grupo 218" transform="translate(157.541 139.171)" opacity="0.3">
          <path id="Trazado_1155" data-name="Trazado 1155" d="M273.51,230.76l14.045,1.209-13.993,17.4Z" transform="translate(-273.51 -230.76)" fill="#fff"/>
        </g>
        <g id="Grupo_219" data-name="Grupo 219" transform="translate(17.5 39.574)" opacity="0.7">
          <path id="Trazado_1156" data-name="Trazado 1156" d="M123.05,199.35l.015,6.711-38.39,22.165-.015-6.7Z" transform="translate(-84.66 -123.045)" fill="#fff"/>
          <path id="Trazado_1157" data-name="Trazado 1157" d="M107.651,225.35l.015,3.337L84.707,241.946l-.007-3.337Z" transform="translate(-84.67 -129.765)" fill="#fff"/>
          <path id="Trazado_1158" data-name="Trazado 1158" d="M195.576,163.01l.015,3.915-11.116,6.414-.015-3.908Z" transform="translate(-110.454 -113.653)" fill="#fff"/>
          <path id="Trazado_1159" data-name="Trazado 1159" d="M223.036,146.41l.007,3.915-14.816,8.557-.007-3.915Z" transform="translate(-116.595 -109.363)" fill="#fff"/>
          <path id="Trazado_1160" data-name="Trazado 1160" d="M282.116,113.05l.007,3.915-11.116,6.414L271,119.472Z" transform="translate(-132.821 -100.74)" fill="#fff"/>
          <path id="Trazado_1161" data-name="Trazado 1161" d="M309.573,96.45l.007,3.915-14.816,8.557-.015-3.915Z" transform="translate(-138.959 -96.45)" fill="#fff"/>
          <path id="Trazado_1162" data-name="Trazado 1162" d="M254.543,127.64l.007,3.915-17.686,10.218-.015-3.915Z" transform="translate(-123.995 -104.511)" fill="#fff"/>
        </g>
        <g id="Grupo_220" data-name="Grupo 220" transform="translate(17.56 148.447)" opacity="0.7">
          <path id="Trazado_1163" data-name="Trazado 1163" d="M123.372,250.19l.007,2.959L84.767,275.439l-.007-2.959Z" transform="translate(-84.745 -245.059)" fill="#fff"/>
          <path id="Trazado_1164" data-name="Trazado 1164" d="M99.937,275.37l.015,2.951-15.165,8.758-.007-2.959Z" transform="translate(-84.75 -251.566)" fill="#fff"/>
          <path id="Trazado_1165" data-name="Trazado 1165" d="M123.435,273.57l.007,2.959-38.6,22.291-.007-2.959Z" transform="translate(-84.763 -251.101)" fill="#fff"/>
          <path id="Trazado_1166" data-name="Trazado 1166" d="M123.415,266.65l.007,2.951-38.6,22.291-.007-2.951Z" transform="translate(-84.758 -249.313)" fill="#fff"/>
          <path id="Trazado_1167" data-name="Trazado 1167" d="M123.352,243.27l.007,2.951L84.747,268.512l-.007-2.951Z" transform="translate(-84.74 -243.27)" fill="#fff"/>
          <path id="Trazado_1168" data-name="Trazado 1168" d="M115.117,286.98l.007,2.951-30.27,17.478-.015-2.951Z" transform="translate(-84.766 -254.567)" fill="#fff"/>
        </g>
        <g id="Grupo_221" data-name="Grupo 221" transform="translate(16.729 198.587)" opacity="0.7">
          <path id="Trazado_1169" data-name="Trazado 1169" d="M121.943,311.712c3.322-1.921,6.029-.378,6.044,3.441a13.168,13.168,0,0,1-6.007,10.382L89.664,344.2c-3.33,1.921-6.036.386-6.044-3.441a13.188,13.188,0,0,1,6-10.382Z" transform="translate(-83.62 -310.886)" fill="#e84e0e"/>
        </g>
        <path id="Trazado_1170" data-name="Trazado 1170" d="M105.328,334.02l.03,5.176-1.387.793-.022-2.351-.971,2.462-.667.386-.986-1.246.007,2.277-1.387.8-.015-5.183,1.246-.719,1.483,1.913,1.424-3.589Z" transform="translate(-71.106 -118.278)" fill="#fff"/>
        <path id="Trazado_1171" data-name="Trazado 1171" d="M110.523,331.3c1.483-.845,2.543-.326,2.551,1.238a5.191,5.191,0,0,1-2.536,4.182c-1.483.845-2.551.326-2.558-1.238A5.191,5.191,0,0,1,110.523,331.3Zm0,4a2.224,2.224,0,0,0,1.008-1.876c0-.808-.452-1.038-1.016-.742a2.225,2.225,0,0,0-1,1.876c0,.808.452,1.031,1.009.741" transform="translate(-73.187 -117.47)" fill="#fff"/>
        <path id="Trazado_1172" data-name="Trazado 1172" d="M119,330.24l.957,1.046-1.624.942-.742-.86-.415.237v1.313l-1.483.875V328.6l2.173-1.261c1.253-.742,2.054-.43,2.061.742A3.285,3.285,0,0,1,119,330.24Zm-1.305-.274a1.083,1.083,0,0,0,.616-.957c0-.378-.2-.5-.616-.252l-.556.319v1.209l.549-.319" transform="translate(-75.18 -116.448)" fill="#fff"/>
        <path id="Trazado_1173" data-name="Trazado 1173" d="M125.723,322.59l.007,1.327-2.173,1.246v.608l1.906-1.1.007,1.253-1.906,1.1v.69l2.254-1.305v1.32l-3.745,2.158-.015-5.176Z" transform="translate(-76.826 -115.323)" fill="#fff"/>
      </g>
      <g id="freepik--Datas--inject-32" transform="translate(91.481 30.514)">
        <path id="Trazado_1174" data-name="Trazado 1174" d="M245.571,422.482l-.007,3.241L223.51,412.99l.007-3.241Z" transform="translate(-163.83 -168.237)" fill="#e84e0e"/>
        <path id="Trazado_1175" data-name="Trazado 1175" d="M250.15,418.513l-.015,3.248-8.965-5.176.007-3.255Z" transform="translate(-168.395 -169.162)" fill="#e84e0e"/>
        <g id="Grupo_222" data-name="Grupo 222" transform="translate(29.165 207.55)">
          <path id="Trazado_1176" data-name="Trazado 1176" d="M198.434,401.866l-.007,3.248-15.876-9.165.007-3.248Z" transform="translate(-182.409 -371.381)" fill="#e84e0e"/>
          <path id="Trazado_1177" data-name="Trazado 1177" d="M208.027,400.807l-.007,3.241-25.45-14.69.007-3.248Z" transform="translate(-182.414 -369.677)" fill="#e84e0e"/>
          <path id="Trazado_1178" data-name="Trazado 1178" d="M221.706,402.094l-.007,3.248L196.509,390.8l-2.454-1.416-11.694-6.748.007-3.255,11.7,6.755,2.455,1.416Z" transform="translate(-182.36 -367.938)" fill="#e84e0e"/>
          <path id="Trazado_1179" data-name="Trazado 1179" d="M214.435,382.3l-.007,3.241-31.8-18.353.015-3.241Z" transform="translate(-182.43 -363.95)" fill="#e84e0e"/>
          <path id="Trazado_1180" data-name="Trazado 1180" d="M220.892,379.419l-.015,3.241-6.207-3.589.007-3.241Z" transform="translate(-190.711 -367.02)" fill="#e84e0e"/>
        </g>
        <path id="Trazado_1181" data-name="Trazado 1181" d="M217.493,412.876l-.007,3.241-8.965-5.176.007-3.241Z" transform="translate(-159.956 -167.707)" fill="#e84e0e"/>
        <path id="Trazado_1182" data-name="Trazado 1182" d="M247.176,394.591l-.007,3.241-17.678-10.2.007-3.248Z" transform="translate(-165.376 -161.68)" fill="#e84e0e"/>
        <path id="Trazado_1183" data-name="Trazado 1183" d="M242.388,385.228l-.007,3.241-12.362-7.134-2.729-1.572L210.91,370.3l.007-3.241,16.381,9.455,2.729,1.579Z" transform="translate(-160.574 -157.203)" fill="#e84e0e"/>
        <path id="Trazado_1184" data-name="Trazado 1184" d="M228.365,363.919l-.015,3.241-20.57-11.879.007-3.241Z" transform="translate(-159.765 -153.321)" fill="#e84e0e"/>
        <path id="Trazado_1185" data-name="Trazado 1185" d="M201.248,368.08l-.007,3.241-18.59-10.73.007-3.241Z" transform="translate(-153.27 -154.694)" fill="#e84e0e"/>
        <g id="Grupo_223" data-name="Grupo 223" transform="translate(29.254 182.998)">
          <path id="Trazado_1186" data-name="Trazado 1186" d="M198.554,359.926l-.007,3.24L182.67,354l.007-3.241Z" transform="translate(-182.529 -335.988)" fill="#e84e0e"/>
          <path id="Trazado_1187" data-name="Trazado 1187" d="M196.636,345.6l-.007,3.24-14.149-8.164.007-3.248Z" transform="translate(-182.48 -332.543)" fill="#e84e0e"/>
          <path id="Trazado_1188" data-name="Trazado 1188" d="M208.147,358.86l-.007,3.241-25.45-14.69.007-3.241Z" transform="translate(-182.534 -334.285)" fill="#e84e0e"/>
          <path id="Trazado_1189" data-name="Trazado 1189" d="M203.419,342.912l-.007,3.248L182.5,334.088l.007-3.248Z" transform="translate(-182.485 -330.84)" fill="#e84e0e"/>
        </g>
        <path id="Trazado_1190" data-name="Trazado 1190" d="M245.691,380.532l-.007,3.248L223.63,371.048l.007-3.248Z" transform="translate(-163.861 -157.395)" fill="#e84e0e"/>
        <path id="Trazado_1191" data-name="Trazado 1191" d="M250.27,376.566l-.015,3.241-8.965-5.176.007-3.241Z" transform="translate(-168.426 -158.323)" fill="#e84e0e"/>
        <g id="Grupo_226" data-name="Grupo 226" transform="translate(29.165 182.998)" opacity="0.6">
          <path id="Trazado_1192" data-name="Trazado 1192" d="M245.571,422.482l-.007,3.241L223.51,412.99l.007-3.241Z" transform="translate(-192.996 -351.235)" fill="#fff"/>
          <path id="Trazado_1193" data-name="Trazado 1193" d="M250.15,418.513l-.015,3.248-8.965-5.176.007-3.255Z" transform="translate(-197.56 -352.16)" fill="#fff"/>
          <g id="Grupo_224" data-name="Grupo 224" transform="translate(0 24.552)">
            <path id="Trazado_1194" data-name="Trazado 1194" d="M198.434,401.866l-.007,3.248-15.876-9.165.007-3.248Z" transform="translate(-182.409 -371.381)" fill="#fff"/>
            <path id="Trazado_1195" data-name="Trazado 1195" d="M208.027,400.807l-.007,3.241-25.45-14.69.007-3.248Z" transform="translate(-182.414 -369.677)" fill="#fff"/>
            <path id="Trazado_1196" data-name="Trazado 1196" d="M221.706,402.094l-.007,3.248L196.509,390.8l-2.454-1.416-11.694-6.748.007-3.255,11.7,6.755,2.455,1.416Z" transform="translate(-182.36 -367.938)" fill="#fff"/>
            <path id="Trazado_1197" data-name="Trazado 1197" d="M214.435,382.3l-.007,3.241-31.8-18.353.015-3.241Z" transform="translate(-182.43 -363.95)" fill="#fff"/>
            <path id="Trazado_1198" data-name="Trazado 1198" d="M220.892,379.419l-.015,3.241-6.207-3.589.007-3.241Z" transform="translate(-190.711 -367.02)" fill="#fff"/>
          </g>
          <path id="Trazado_1199" data-name="Trazado 1199" d="M217.493,412.876l-.007,3.241-8.965-5.176.007-3.241Z" transform="translate(-189.121 -350.705)" fill="#fff"/>
          <path id="Trazado_1200" data-name="Trazado 1200" d="M247.176,394.591l-.007,3.241-17.678-10.2.007-3.248Z" transform="translate(-194.541 -344.678)" fill="#fff"/>
          <path id="Trazado_1201" data-name="Trazado 1201" d="M242.388,385.228l-.007,3.241-12.362-7.134-2.729-1.572L210.91,370.3l.007-3.241,16.381,9.455,2.729,1.579Z" transform="translate(-189.739 -340.201)" fill="#fff"/>
          <path id="Trazado_1202" data-name="Trazado 1202" d="M228.365,363.919l-.015,3.241-20.57-11.879.007-3.241Z" transform="translate(-188.93 -336.319)" fill="#fff"/>
          <path id="Trazado_1203" data-name="Trazado 1203" d="M201.248,368.08l-.007,3.241-18.59-10.73.007-3.241Z" transform="translate(-182.435 -337.692)" fill="#fff"/>
          <g id="Grupo_225" data-name="Grupo 225" transform="translate(0.089)">
            <path id="Trazado_1204" data-name="Trazado 1204" d="M198.554,359.926l-.007,3.24L182.67,354l.007-3.241Z" transform="translate(-182.529 -335.988)" fill="#fff"/>
            <path id="Trazado_1205" data-name="Trazado 1205" d="M196.636,345.6l-.007,3.24-14.149-8.164.007-3.248Z" transform="translate(-182.48 -332.543)" fill="#fff"/>
            <path id="Trazado_1206" data-name="Trazado 1206" d="M208.147,358.86l-.007,3.241-25.45-14.69.007-3.241Z" transform="translate(-182.534 -334.285)" fill="#fff"/>
            <path id="Trazado_1207" data-name="Trazado 1207" d="M203.419,342.912l-.007,3.248L182.5,334.088l.007-3.248Z" transform="translate(-182.485 -330.84)" fill="#fff"/>
          </g>
          <path id="Trazado_1208" data-name="Trazado 1208" d="M245.691,380.532l-.007,3.248L223.63,371.048l.007-3.248Z" transform="translate(-193.027 -340.393)" fill="#fff"/>
          <path id="Trazado_1209" data-name="Trazado 1209" d="M250.27,376.566l-.015,3.241-8.965-5.176.007-3.241Z" transform="translate(-197.591 -341.32)" fill="#fff"/>
        </g>
        <path id="Trazado_1210" data-name="Trazado 1210" d="M161.934,321.577l-7.519-4.449a.378.378,0,0,1-.185-.326V269.936l-9.7-5.613.378-.653,9.885,5.725a.378.378,0,0,1,.193.326v46.888l7.334,4.316Z" transform="translate(-143.417 -130.482)" fill="#e84e0e"/>
        <path id="Trazado_1211" data-name="Trazado 1211" d="M169.979,338.571a5.932,5.932,0,0,1,2.677,4.642c0,1.705-1.209,2.4-2.7,1.535a5.932,5.932,0,0,1-2.677-4.642C167.287,338.4,168.5,337.711,169.979,338.571Z" transform="translate(-149.297 -149.745)" fill="#e84e0e"/>
        <path id="Trazado_1212" data-name="Trazado 1212" d="M145.729,260.872a5.932,5.932,0,0,1,2.684,4.642c0,1.706-1.216,2.4-2.7,1.535a5.932,5.932,0,0,1-2.684-4.642C143.008,260.709,144.246,260.02,145.729,260.872Z" transform="translate(-143.03 -129.664)" fill="#e84e0e"/>
        <g id="Grupo_227" data-name="Grupo 227" transform="translate(0 130.843)" opacity="0.2">
          <path id="Trazado_1213" data-name="Trazado 1213" d="M161.934,321.577l-7.519-4.449a.378.378,0,0,1-.185-.326V269.936l-9.7-5.613.378-.653,9.885,5.725a.378.378,0,0,1,.193.326v46.888l7.334,4.316Z" transform="translate(-143.417 -261.324)" fill="#fff"/>
          <path id="Trazado_1214" data-name="Trazado 1214" d="M169.979,338.571a5.932,5.932,0,0,1,2.677,4.642c0,1.705-1.209,2.4-2.7,1.535a5.932,5.932,0,0,1-2.677-4.642C167.287,338.4,168.5,337.711,169.979,338.571Z" transform="translate(-149.297 -280.587)" fill="#fff"/>
          <path id="Trazado_1215" data-name="Trazado 1215" d="M145.729,260.872a5.932,5.932,0,0,1,2.684,4.642c0,1.706-1.216,2.4-2.7,1.535a5.932,5.932,0,0,1-2.684-4.642C143.008,260.709,144.246,260.02,145.729,260.872Z" transform="translate(-143.03 -260.507)" fill="#fff"/>
        </g>
        <path id="Trazado_1216" data-name="Trazado 1216" d="M422.431,127.162l-.015,3.248L400.37,117.678l.008-3.248Z" transform="translate(-209.541 -91.909)" fill="#e84e0e"/>
        <path id="Trazado_1217" data-name="Trazado 1217" d="M427,123.2,427,126.451l-8.965-5.183.007-3.248Z" transform="translate(-214.106 -92.837)" fill="#e84e0e"/>
        <g id="Grupo_228" data-name="Grupo 228" transform="translate(160.314 0)">
          <path id="Trazado_1218" data-name="Trazado 1218" d="M375.294,106.555l-.007,3.241-15.876-9.165.007-3.241Z" transform="translate(-359.269 -87.505)" fill="#e84e0e"/>
          <path id="Trazado_1219" data-name="Trazado 1219" d="M384.887,105.49l-.008,3.248-25.45-14.7.007-3.241Z" transform="translate(-359.274 -85.802)" fill="#e84e0e"/>
          <path id="Trazado_1220" data-name="Trazado 1220" d="M398.559,106.773l-.008,3.255L373.369,95.487l-2.454-1.416L359.22,87.315l.007-3.255,11.694,6.755,2.455,1.416Z" transform="translate(-359.22 -84.06)" fill="#e84e0e"/>
        </g>
        <path id="Trazado_1221" data-name="Trazado 1221" d="M394.353,117.556l-.015,3.241-8.958-5.169.007-3.248Z" transform="translate(-205.667 -91.38)" fill="#e84e0e"/>
        <g id="Grupo_230" data-name="Grupo 230" transform="translate(160.314 0)" opacity="0.6">
          <path id="Trazado_1222" data-name="Trazado 1222" d="M422.431,127.162l-.015,3.248L400.37,117.678l.008-3.248Z" transform="translate(-369.855 -91.909)" fill="#fff"/>
          <path id="Trazado_1223" data-name="Trazado 1223" d="M427,123.2,427,126.451l-8.965-5.183.007-3.248Z" transform="translate(-374.42 -92.837)" fill="#fff"/>
          <g id="Grupo_229" data-name="Grupo 229">
            <path id="Trazado_1224" data-name="Trazado 1224" d="M375.294,106.555l-.007,3.241-15.876-9.165.007-3.241Z" transform="translate(-359.269 -87.505)" fill="#fff"/>
            <path id="Trazado_1225" data-name="Trazado 1225" d="M384.887,105.49l-.008,3.248-25.45-14.7.007-3.241Z" transform="translate(-359.274 -85.802)" fill="#fff"/>
            <path id="Trazado_1226" data-name="Trazado 1226" d="M398.559,106.773l-.008,3.255L373.369,95.487l-2.454-1.416L359.22,87.315l.007-3.255,11.694,6.755,2.455,1.416Z" transform="translate(-359.22 -84.06)" fill="#fff"/>
          </g>
          <path id="Trazado_1227" data-name="Trazado 1227" d="M394.353,117.556l-.015,3.241-8.958-5.169.007-3.248Z" transform="translate(-365.981 -91.38)" fill="#fff"/>
        </g>
        <path id="Trazado_1228" data-name="Trazado 1228" d="M427,146.846,427,150.094l-8.965-5.176.007-3.248Z" transform="translate(-214.106 -98.95)" fill="#e84e0e"/>
        <g id="Grupo_231" data-name="Grupo 231" transform="translate(160.314 17.537)">
          <path id="Trazado_1229" data-name="Trazado 1229" d="M384.887,129.14l-.008,3.241-25.45-14.69.007-3.241Z" transform="translate(-359.274 -109.452)" fill="#e84e0e"/>
          <path id="Trazado_1230" data-name="Trazado 1230" d="M398.559,130.423l-.008,3.248-25.183-14.534-2.454-1.424-11.694-6.748.007-3.255,11.694,6.755,2.455,1.416Z" transform="translate(-359.22 -107.71)" fill="#e84e0e"/>
        </g>
        <g id="Grupo_233" data-name="Grupo 233" transform="translate(160.314 17.537)" opacity="0.6">
          <path id="Trazado_1231" data-name="Trazado 1231" d="M427,146.846,427,150.094l-8.965-5.176.007-3.248Z" transform="translate(-374.42 -116.487)" fill="#fff"/>
          <g id="Grupo_232" data-name="Grupo 232">
            <path id="Trazado_1232" data-name="Trazado 1232" d="M384.887,129.14l-.008,3.241-25.45-14.69.007-3.241Z" transform="translate(-359.274 -109.452)" fill="#fff"/>
            <path id="Trazado_1233" data-name="Trazado 1233" d="M398.559,130.423l-.008,3.248-25.183-14.534-2.454-1.424-11.694-6.748.007-3.255,11.694,6.755,2.455,1.416Z" transform="translate(-359.22 -107.71)" fill="#fff"/>
          </g>
        </g>
        <path id="Trazado_1234" data-name="Trazado 1234" d="M357.353,134.871c-1.483-.86-2.692-.171-2.692,1.535a5.264,5.264,0,0,0,.638,2.366l-37.819,21.89-11.924-6.956a5.933,5.933,0,0,0-2.677-4.6c-1.483-.86-2.692-.171-2.7,1.535a5.932,5.932,0,0,0,2.677,4.642c1.238.742,2.269.348,2.588-.742l12.035,7.022,38.182-22.18a5.19,5.19,0,0,0,1.654,1.631c1.483.86,2.692.171,2.7-1.535A5.932,5.932,0,0,0,357.353,134.871Z" transform="translate(-183.646 -97.097)" fill="#e84e0e"/>
        <path id="Trazado_1235" data-name="Trazado 1235" d="M357.353,134.871c-1.483-.86-2.692-.171-2.692,1.535a5.264,5.264,0,0,0,.638,2.366l-37.819,21.89-11.924-6.956a5.933,5.933,0,0,0-2.677-4.6c-1.483-.86-2.692-.171-2.7,1.535a5.932,5.932,0,0,0,2.677,4.642c1.238.742,2.269.348,2.588-.742l12.035,7.022,38.182-22.18a5.19,5.19,0,0,0,1.654,1.631c1.483.86,2.692.171,2.7-1.535A5.932,5.932,0,0,0,357.353,134.871Z" transform="translate(-183.646 -97.097)" fill="#fff" opacity="0.2"/>
      </g>
      <g id="freepik--Character--inject-32" transform="translate(179.567 119.159)">
        <path id="Trazado_1236" data-name="Trazado 1236" d="M309.506,282.549c-6.318,4.39-13.437,7.415-18.709,13.311-9.862,10.982-10.092,28.668-2.351,41.23s22.142,20.118,36.818,21.853c15.38,1.809,31.516-2.44,43.588-12.146s19.74-24.879,19.732-40.362-7.935-30.908-20.9-39.368c-11.865-7.719-28.846-9.922-40.718-1.09-6.007,4.449-10,11.056-16,15.535C310.478,281.867,310,282.208,309.506,282.549Z" transform="translate(-267.288 -218.243)" fill="#37474f"/>
        <path id="Trazado_1237" data-name="Trazado 1237" d="M309.506,282.549c-6.318,4.39-13.437,7.415-18.709,13.311-9.862,10.982-10.092,28.668-2.351,41.23s22.142,20.118,36.818,21.853c15.38,1.809,31.516-2.44,43.588-12.146s19.74-24.879,19.732-40.362-7.935-30.908-20.9-39.368c-11.865-7.719-28.846-9.922-40.718-1.09-6.007,4.449-10,11.056-16,15.535C310.478,281.867,310,282.208,309.506,282.549Z" transform="translate(-267.288 -218.243)" opacity="0.2"/>
        <path id="Trazado_1238" data-name="Trazado 1238" d="M309.506,282.549c-6.318,4.39-13.437,7.415-18.709,13.311-9.862,10.982-10.092,28.668-2.351,41.23s22.142,20.118,36.818,21.853c15.38,1.809,31.516-2.44,43.588-12.146s19.74-24.879,19.732-40.362-7.935-30.908-20.9-39.368c-11.865-7.719-28.846-9.922-40.718-1.09-6.007,4.449-10,11.056-16,15.535C310.478,281.867,310,282.208,309.506,282.549Z" transform="translate(-267.288 -218.243)" fill="#fff" opacity="0.1"/>
        <path id="Trazado_1239" data-name="Trazado 1239" d="M315.536,352.122l.044-.311a16.633,16.633,0,0,1,13.481-13.882,52.436,52.436,0,0,0,17.263-6.615c3.774-2.276,7.334-5.072,11.568-6.311a18.835,18.835,0,0,1,12.465.742,14.549,14.549,0,0,0-14.527-3.708c3.374-5.191,6.34-10.723,7.5-16.781s.341-12.7-3.315-17.671a17.8,17.8,0,0,0-27.437-1.483c-3.619,3.96-5.658,9.521-8.031,14.327-1.713,3.456-3.47,6.985-6.288,9.64-4.242,3.967-10.344,5.4-14.742,9.2-4.991,4.308-7.141,11.19-7.163,17.8a52.47,52.47,0,0,0,1.928,13.148,49.929,49.929,0,0,0,18.042,11.027,19.591,19.591,0,0,1-.793-9.114Z" transform="translate(-270.745 -223.435)" opacity="0.1"/>
        <g id="Grupo_234" data-name="Grupo 234" transform="translate(57.072 42.179)" opacity="0.2">
          <path id="Trazado_1240" data-name="Trazado 1240" d="M394.737,304.365a45.234,45.234,0,0,0-38.56-43.885,33.241,33.241,0,0,0-4.36.742,44.063,44.063,0,0,1,41.727,43.173c.282,14.415-6.763,29.105-18.857,39.3-9.477,7.994-22.068,13.288-35.905,15.194l.89.119c1.238.141,2.492.245,3.708.311,12.287-2.38,23.425-7.452,32.035-14.712C387.818,334.174,395.026,319.136,394.737,304.365Z" transform="translate(-338.78 -260.48)" fill="#fff"/>
        </g>
        <path id="Trazado_1241" data-name="Trazado 1241" d="M300.5,370.412a44.006,44.006,0,0,1,.742,7.193l1.706-.645a4.4,4.4,0,0,1,4.738,1.075l.089.089a1.713,1.713,0,0,0,2.365.111h0a1.72,1.72,0,0,0,.593-1.238l.23-7.267Z" transform="translate(-271.815 -246.538)" fill="#ffa8a7"/>
        <path id="Trazado_1242" data-name="Trazado 1242" d="M304.224,402.11c-3.537,3.789-10.055,7.1-14.794,3.871l.527,1.209c4.738,3.226,11.257-.082,14.831-3.871s1.246-6.414,4.449-9.773A11.5,11.5,0,0,0,312,389.452c-.141-.356-.282-.83-.445-1.372a14.651,14.651,0,0,1-2.84,4.264C305.47,395.733,307.768,398.358,304.224,402.11Z" transform="translate(-268.953 -251.281)" fill="#f5f5f5"/>
        <path id="Trazado_1243" data-name="Trazado 1243" d="M309.611,381.514a7.03,7.03,0,0,1-1.12-2.581,1.483,1.483,0,0,0-.7-1.053l-.037,1.224a1.72,1.72,0,0,1-2.966,1.127l-.089-.089a4.4,4.4,0,0,0-4.739-1.075l-1.735.653a1.335,1.335,0,0,0-.86,1.275c.111,4.968-2.225,11.561-4.642,15.187-2.5,1.038-4.664,4.449-3.559,6.941l.111.252c4.738,3.233,11.257-.082,14.794-3.871s1.246-6.407,4.449-9.766a14.653,14.653,0,0,0,2.84-4.264A15.793,15.793,0,0,0,309.611,381.514Z" transform="translate(-268.809 -248.644)" fill="#455a64"/>
        <path id="Trazado_1244" data-name="Trazado 1244" d="M305.2,391.766a.608.608,0,0,0,.808-.267.593.593,0,0,0-.245-.8,6.926,6.926,0,0,0-6.807,0c-.1.393-.215.779-.334,1.164A6.674,6.674,0,0,1,305.2,391.766Z" transform="translate(-271.329 -251.726)" fill="#fff"/>
        <path id="Trazado_1245" data-name="Trazado 1245" d="M306.313,388.146a.608.608,0,0,0,.556-1.075,7.275,7.275,0,0,0-7.074.059c-.074.408-.156.808-.245,1.216A6.731,6.731,0,0,1,306.313,388.146Z" transform="translate(-271.569 -250.79)" fill="#fff"/>
        <path id="Trazado_1246" data-name="Trazado 1246" d="M303.9,395.373a.608.608,0,0,0,.808-.274.6.6,0,0,0-.252-.8,6.889,6.889,0,0,0-6.674-.067c-.148.423-.311.831-.475,1.238a6.674,6.674,0,0,1,6.592-.1Z" transform="translate(-270.99 -252.656)" fill="#fff"/>
        <path id="Trazado_1247" data-name="Trazado 1247" d="M292.736,402.266c-2.5,1.038-4.664,4.449-3.559,6.941l.111.252c4.664,3.181,11.056,0,14.631-3.708C300.938,399.915,294.709,401.369,292.736,402.266Z" transform="translate(-268.811 -254.729)" fill="#fff"/>
        <path id="Trazado_1248" data-name="Trazado 1248" d="M302.43,398.894a.608.608,0,0,0,.556-1.075,6.889,6.889,0,0,0-6.674-.059c-.215.46-.43.9-.653,1.335A6.727,6.727,0,0,1,302.43,398.894Z" transform="translate(-270.564 -253.567)" fill="#fff"/>
        <path id="Trazado_1249" data-name="Trazado 1249" d="M289.685,390.12a44.161,44.161,0,0,1-2.225,6.889l1.817.1a4.449,4.449,0,0,1,3.908,2.9v.111a1.728,1.728,0,0,0,2.128,1.06h0a1.75,1.75,0,0,0,1.038-.9l3.137-6.555Z" transform="translate(-268.444 -251.808)" fill="#ffa8a7"/>
        <path id="Trazado_1250" data-name="Trazado 1250" d="M278.638,423.55c-4.768,2.039-12.072,2.44-15.1-2.432v1.32c3.025,4.865,10.33,4.449,15.1,2.432s3.708-5.361,7.994-7.149a11.588,11.588,0,0,0,4.175-2.632,14.147,14.147,0,0,1,.148-1.439,14.393,14.393,0,0,1-4.323,2.751C282.36,418.188,283.406,421.518,278.638,423.55Z" transform="translate(-262.262 -257.889)" fill="#f5f5f5"/>
        <path id="Trazado_1251" data-name="Trazado 1251" d="M290.957,405.646a6.912,6.912,0,0,1,0-2.818,1.483,1.483,0,0,0-.215-1.246l-.527,1.1a1.75,1.75,0,0,1-1.038.9,1.728,1.728,0,0,1-2.128-1.06v-.111a4.449,4.449,0,0,0-3.908-2.9l-1.846-.1a1.335,1.335,0,0,0-1.305.816c-1.906,4.59-6.674,9.692-10.382,12.028-2.707-.067-6.058,2.18-6.058,4.916v.267c3.025,4.872,10.33,4.449,15.1,2.432s3.708-5.361,7.994-7.148a14.392,14.392,0,0,0,4.323-2.751A15.463,15.463,0,0,0,290.957,405.646Z" transform="translate(-262.265 -254.208)" fill="#455a64"/>
        <path id="Trazado_1252" data-name="Trazado 1252" d="M285.946,411.666a.6.6,0,0,0,.942-.742,6.918,6.918,0,0,0-6.229-2.736q-.378.482-.779.934A6.674,6.674,0,0,1,285.946,411.666Z" transform="translate(-266.485 -256.469)" fill="#fff"/>
        <path id="Trazado_1253" data-name="Trazado 1253" d="M288.406,408.8a.6.6,0,0,0,.845.081.608.608,0,0,0,.1-.838,7.26,7.26,0,0,0-6.5-2.8c-.23.341-.475.682-.742,1.016A6.762,6.762,0,0,1,288.406,408.8Z" transform="translate(-267.062 -255.705)" fill="#fff"/>
        <path id="Trazado_1254" data-name="Trazado 1254" d="M283.318,414.446a.6.6,0,0,0,.942-.741,6.911,6.911,0,0,0-6.066-2.751c-.3.326-.616.638-.934.942A6.674,6.674,0,0,1,283.318,414.446Z" transform="translate(-265.808 -257.187)" fill="#fff"/>
        <path id="Trazado_1255" data-name="Trazado 1255" d="M269.6,416.729c-2.707-.067-6.058,2.18-6.058,4.916v.267c2.966,4.8,10.107,4.449,14.875,2.521C278.052,417.886,271.764,416.7,269.6,416.729Z" transform="translate(-262.262 -258.685)" fill="#fff"/>
        <path id="Trazado_1256" data-name="Trazado 1256" d="M280.526,417.09a.608.608,0,0,0,.845.074.593.593,0,0,0,.1-.831,6.9,6.9,0,0,0-6.073-2.751c-.378.341-.741.66-1.135.957A6.721,6.721,0,0,1,280.526,417.09Z" transform="translate(-265.033 -257.866)" fill="#fff"/>
        <path id="Trazado_1257" data-name="Trazado 1257" d="M317.805,306.48l-23.87,13.3a11.864,11.864,0,0,0-5.873,12.488l4.635,24.953-3.8,12.065c3.278,4.4,10.8,4.62,10.8,4.62,4.2-8.417,7.282-11.991,9.64-19.043s3.975-11.924,3.975-11.924l19.821-5.413a23.484,23.484,0,0,0,17.174-19.984c.341-3,.356-5.05.356-5.05Z" transform="translate(-268.55 -230.19)" fill="#e84e0e"/>
        <path id="Trazado_1258" data-name="Trazado 1258" d="M317.805,306.48l-23.87,13.3a11.864,11.864,0,0,0-5.873,12.488l4.635,24.953-3.8,12.065c3.278,4.4,10.8,4.62,10.8,4.62,4.2-8.417,7.282-11.991,9.64-19.043s3.975-11.924,3.975-11.924l19.821-5.413a23.484,23.484,0,0,0,17.174-19.984c.341-3,.356-5.05.356-5.05Z" transform="translate(-268.55 -230.19)" opacity="0.3"/>
        <path id="Trazado_1259" data-name="Trazado 1259" d="M317.805,306.48l-23.87,13.3a11.864,11.864,0,0,0-5.873,12.488l4.635,24.953-3.8,12.065c3.278,4.4,10.8,4.62,10.8,4.62,4.2-8.417,7.282-11.991,9.64-19.043s3.975-11.924,3.975-11.924l19.821-5.413a23.484,23.484,0,0,0,17.174-19.984c.341-3,.356-5.05.356-5.05Z" transform="translate(-268.55 -230.19)" fill="#fff" opacity="0.1"/>
        <path id="Trazado_1260" data-name="Trazado 1260" d="M319.677,315.52a11.264,11.264,0,0,0,2.67,7.275l-16.84,10.545a12.094,12.094,0,0,0-5.154,6.718l-5.932,19.5,5.376-21.712a9.847,9.847,0,0,1,4.383-6.007l15.572-9.64A7.871,7.871,0,0,1,319.677,315.52Z" transform="translate(-270.243 -232.527)" opacity="0.2"/>
        <path id="Trazado_1261" data-name="Trazado 1261" d="M295.277,261.753l-5.369,4.85c-3.433-4.383-8.038-7.341-12.065-13.481-1.157-1.483-1.038-4.4-1.824-5.9-.623-1.172-1.706-2.966-2.158-3.923a.653.653,0,0,0-.986-.26c-1.1.845-.5,2.818.089,4.887.7,2.447-2.966-.868-3.485-1.431-2.343-2.18-4.353-7.527-5.932-6.993s-.334,3.2-.334,3.2c-1.483.311-.912,2.655-.912,2.655-.868,1.535-.623,3.9,1.164,6.1,1.3,1.594,4.805,3.789,6.629,4.865a6.007,6.007,0,0,1,1.9,1.795l11.464,17.1a6.889,6.889,0,0,0,9.833,1.668l7.809-5.843Z" transform="translate(-261.817 -212.871)" fill="#ffa8a7"/>
        <path id="Trazado_1262" data-name="Trazado 1262" d="M295.277,261.753l-5.369,4.85c-3.433-4.383-8.038-7.341-12.065-13.481-1.157-1.483-1.038-4.4-1.824-5.9-.623-1.172-1.706-2.966-2.158-3.923a.653.653,0,0,0-.986-.26c-1.1.845-.5,2.818.089,4.887.7,2.447-2.966-.868-3.485-1.431-2.343-2.18-4.353-7.527-5.932-6.993s-.334,3.2-.334,3.2c-1.483.311-.912,2.655-.912,2.655-.868,1.535-.623,3.9,1.164,6.1,1.3,1.594,4.805,3.789,6.629,4.865a6.007,6.007,0,0,1,1.9,1.795l11.464,17.1a6.889,6.889,0,0,0,9.833,1.668l7.809-5.843Z" transform="translate(-261.817 -212.871)" opacity="0.3"/>
        <path id="Trazado_1263" data-name="Trazado 1263" d="M323.909,251.408c-5.829-.252-13.563,8.394-18.539,13.578a19.1,19.1,0,0,0,6.511,10.434,141.327,141.327,0,0,0,12.028-9.484Z" transform="translate(-273.073 -215.955)" fill="#455a64"/>
        <path id="Trazado_1264" data-name="Trazado 1264" d="M323.909,251.408c-5.829-.252-13.563,8.394-18.539,13.578a19.1,19.1,0,0,0,6.511,10.434,141.327,141.327,0,0,0,12.028-9.484Z" transform="translate(-273.073 -215.955)" fill="#fff" opacity="0.3"/>
        <path id="Trazado_1265" data-name="Trazado 1265" d="M360.312,299.64c-4.234,4.071-24.567,4.82-34.941-5.057.994-6.978.66-14.445,0-21.831s-4.983-20.311,3.263-21.816c11.012-2.15,18.2-1.98,25.568,2.165C362.055,266.2,360.987,285.781,360.312,299.64Z" transform="translate(-277.798 -215.483)" fill="#455a64"/>
        <path id="Trazado_1266" data-name="Trazado 1266" d="M360.312,299.64c-4.234,4.071-24.567,4.82-34.941-5.057.994-6.978.66-14.445,0-21.831s-4.983-20.311,3.263-21.816c11.012-2.15,18.2-1.98,25.568,2.165C362.055,266.2,360.987,285.781,360.312,299.64Z" transform="translate(-277.798 -215.483)" fill="#455a64"/>
        <path id="Trazado_1267" data-name="Trazado 1267" d="M360.312,299.64c-4.234,4.071-24.567,4.82-34.941-5.057.994-6.978.66-14.445,0-21.831s-4.983-20.311,3.263-21.816c11.012-2.15,18.2-1.98,25.568,2.165C362.055,266.2,360.987,285.781,360.312,299.64Z" transform="translate(-277.798 -215.483)" fill="#fff" opacity="0.2"/>
        <path id="Trazado_1268" data-name="Trazado 1268" d="M333.119,326.671a.932.932,0,0,1,0,.319h0a.926.926,0,0,1-.119.245h0a1.638,1.638,0,0,1-.215.245h0a2.3,2.3,0,0,1-.326.23L315,337.854a2.816,2.816,0,0,1-.5.223l-.193.059-.252.067-.311.052H313.1a3.8,3.8,0,0,1-.415,0h-.067a3.6,3.6,0,0,1-.408-.067h-.074l-.349-.1h-.067a2.315,2.315,0,0,1-.386-.185l-28.816-16.633a2.306,2.306,0,0,1-.326-.23l-.082-.089a1.512,1.512,0,0,1-.148-.171.815.815,0,0,1-.059-.111.673.673,0,0,1-.082-.163.567.567,0,0,1,0-.119,1.063,1.063,0,0,1,0-.163v1.023a1.055,1.055,0,0,0,0,.163.548.548,0,0,0,.1.282.814.814,0,0,0,.059.111,1.014,1.014,0,0,0,.148.163.969.969,0,0,0,.082.089,1.846,1.846,0,0,0,.326.237l28.816,16.633a2.3,2.3,0,0,0,.386.185h.067l.349.1h.074a3.616,3.616,0,0,0,.408.067h.067a3.8,3.8,0,0,0,.415,0h.571l.311-.059.252-.059.193-.059a2.81,2.81,0,0,0,.5-.222l17.426-10.092a2.27,2.27,0,0,0,.326-.223,2.106,2.106,0,0,0,.215-.245h0a.93.93,0,0,0,.119-.245h0a.863.863,0,0,0,0-.237h0v-1.112Z" transform="translate(-266.985 -233.742)" fill="#e0e0e0"/>
        <path id="Trazado_1269" data-name="Trazado 1269" d="M333.119,326.671a.932.932,0,0,1,0,.319h0a.926.926,0,0,1-.119.245h0a1.638,1.638,0,0,1-.215.245h0a2.3,2.3,0,0,1-.326.23L315,337.854a2.816,2.816,0,0,1-.5.223l-.193.059-.252.067-.311.052H313.1a3.8,3.8,0,0,1-.415,0h-.067a3.6,3.6,0,0,1-.408-.067h-.074l-.349-.1h-.067a2.315,2.315,0,0,1-.386-.185l-28.816-16.633a2.306,2.306,0,0,1-.326-.23l-.082-.089a1.512,1.512,0,0,1-.148-.171.815.815,0,0,1-.059-.111.673.673,0,0,1-.082-.163.567.567,0,0,1,0-.119,1.063,1.063,0,0,1,0-.163v1.023a1.055,1.055,0,0,0,0,.163.548.548,0,0,0,.1.282.814.814,0,0,0,.059.111,1.014,1.014,0,0,0,.148.163.969.969,0,0,0,.082.089,1.846,1.846,0,0,0,.326.237l28.816,16.633a2.3,2.3,0,0,0,.386.185h.067l.349.1h.074a3.616,3.616,0,0,0,.408.067h.067a3.8,3.8,0,0,0,.415,0h.571l.311-.059.252-.059.193-.059a2.81,2.81,0,0,0,.5-.222l17.426-10.092a2.27,2.27,0,0,0,.326-.223,2.106,2.106,0,0,0,.215-.245h0a.93.93,0,0,0,.119-.245h0a.863.863,0,0,0,0-.237h0v-1.112Z" transform="translate(-266.985 -233.742)" opacity="0.2"/>
        <path id="Trazado_1270" data-name="Trazado 1270" d="M281.751,316.494a.677.677,0,0,0,.082.163.805.805,0,0,0,.059.111,1.519,1.519,0,0,0,.148.171l.082.089a2.3,2.3,0,0,0,.326.23l28.816,16.633a2.3,2.3,0,0,0,.386.185h.067l.349.1h.074a3.583,3.583,0,0,0,.408.067h.067a3.8,3.8,0,0,0,.415,0h.571l.311-.052.252-.067.193-.059a2.81,2.81,0,0,0,.5-.222l17.486-10.1a2.294,2.294,0,0,0,.326-.23h0a1.641,1.641,0,0,0,.215-.245h0a.926.926,0,0,0,.119-.245h0a.932.932,0,0,0,0-.319,1.3,1.3,0,0,0-.742-.986l-28.816-16.633a3.915,3.915,0,0,0-3.582,0L282.44,315.174a1.283,1.283,0,0,0-.742,1.038,1.066,1.066,0,0,0,0,.163A.564.564,0,0,0,281.751,316.494Z" transform="translate(-266.954 -229.719)" fill="#e0e0e0"/>
        <path id="Trazado_1271" data-name="Trazado 1271" d="M285,318.237l28,16.136.1.052h.067l.215.067h.534a2.042,2.042,0,0,0,.289,0h.185l.223-.059a.886.886,0,0,0,.193-.082l9.032-5.169-28.92-16.692Z" transform="translate(-267.809 -231.744)" fill="#e0e0e0"/>
        <path id="Trazado_1272" data-name="Trazado 1272" d="M324,342.3Z" transform="translate(-277.888 -239.448)" fill="#263238"/>
        <path id="Trazado_1273" data-name="Trazado 1273" d="M318.991,314.208l-5.265,3.1a.526.526,0,0,0,0,.919l7.875,4.546a.875.875,0,0,0,.882,0l5.265-3.092a.534.534,0,0,0,0-.919l-7.875-4.553A.875.875,0,0,0,318.991,314.208Z" transform="translate(-275.163 -232.157)" fill="#e0e0e0"/>
        <path id="Trazado_1274" data-name="Trazado 1274" d="M285,318.237l28,16.136.1.052h.067l.215.067h.534a2.042,2.042,0,0,0,.289,0h.185l.223-.059a.886.886,0,0,0,.193-.082l9.032-5.169-28.92-16.692Z" transform="translate(-267.809 -231.744)" opacity="0.4"/>
        <path id="Trazado_1275" data-name="Trazado 1275" d="M318.991,314.208l-5.265,3.1a.526.526,0,0,0,0,.919l7.875,4.546a.875.875,0,0,0,.882,0l5.265-3.092a.534.534,0,0,0,0-.919l-7.875-4.553A.875.875,0,0,0,318.991,314.208Z" transform="translate(-275.163 -232.157)" opacity="0.4"/>
        <path id="Trazado_1276" data-name="Trazado 1276" d="M311.517,329.291l-2.966-18.969a3.485,3.485,0,0,0-1.7-2.484l-29.031-16.878a.867.867,0,0,0-.742-.052h0l-.69.341.23.089a.845.845,0,0,0-.074.512l2.966,18.976a3.485,3.485,0,0,0,1.7,2.477l29,16.878a1.073,1.073,0,0,0,.193.081v.274l.667-.326h0a.868.868,0,0,0,.445-.92Z" transform="translate(-265.583 -226.151)" fill="#e0e0e0"/>
        <path id="Trazado_1277" data-name="Trazado 1277" d="M311.517,329.291l-2.966-18.969a3.485,3.485,0,0,0-1.7-2.484l-29.031-16.878a.867.867,0,0,0-.742-.052h0l-.69.341.23.089a.845.845,0,0,0-.074.512l2.966,18.976a3.485,3.485,0,0,0,1.7,2.477l29,16.878a1.073,1.073,0,0,0,.193.081v.274l.667-.326h0a.868.868,0,0,0,.445-.92Z" transform="translate(-265.583 -226.151)" opacity="0.3"/>
        <path id="Trazado_1278" data-name="Trazado 1278" d="M306.088,308.228l-29.017-16.87a.875.875,0,0,0-1.305.9l2.966,18.969a3.545,3.545,0,0,0,1.706,2.484l29.017,16.87a.875.875,0,0,0,1.305-.9l-2.966-18.969A3.515,3.515,0,0,0,306.088,308.228Z" transform="translate(-265.419 -226.251)" fill="#e0e0e0"/>
        <path id="Trazado_1279" data-name="Trazado 1279" d="M296.919,314.681a6.422,6.422,0,0,1,2.877,4.153c.193,1.483-.786,2.032-2.225,1.216a6.407,6.407,0,0,1-2.877-4.145C294.531,314.422,295.517,313.88,296.919,314.681Z" transform="translate(-270.309 -232.214)" fill="#fff"/>
        <path id="Trazado_1280" data-name="Trazado 1280" d="M367.824,294.3l-3.114-11.583-10.923,2.432,2.618,8.98L340.394,305.5l-5.384,2.269a8.453,8.453,0,0,0-3.567,2.833l-4.39,6.081a.505.505,0,0,0-.045.26.838.838,0,0,0,1.483.4c.971-1.112,1.787-2.143,2.8-3.115l-2.588,3.493a1.045,1.045,0,0,0,.326,1.483,4.017,4.017,0,0,0,.934.408,3.945,3.945,0,0,0,3.634-.912l3.389-3.107.934-.326a14.193,14.193,0,0,0,6.807-5.109l18.769-7.289A7.171,7.171,0,0,0,367.824,294.3Z" transform="translate(-278.665 -224.049)" fill="#ffa8a7"/>
        <path id="Trazado_1281" data-name="Trazado 1281" d="M367.824,294.3l-3.114-11.583-10.923,2.432,2.618,8.98L340.394,305.5l-5.384,2.269a8.453,8.453,0,0,0-3.567,2.833l-4.39,6.081a.505.505,0,0,0-.045.26.838.838,0,0,0,1.483.4c.971-1.112,1.787-2.143,2.8-3.115l-2.588,3.493a1.045,1.045,0,0,0,.326,1.483,4.017,4.017,0,0,0,.934.408,3.945,3.945,0,0,0,3.634-.912l3.389-3.107.934-.326a14.193,14.193,0,0,0,6.807-5.109l18.769-7.289A7.171,7.171,0,0,0,367.824,294.3Z" transform="translate(-278.665 -224.049)" opacity="0.3"/>
        <path id="Trazado_1282" data-name="Trazado 1282" d="M374.183,276.632l-.334-1.535c-3.967-18.034-7.134-19.317-12.45-21.787-5.191,4.509-4.308,12.176-4.308,12.176l4.635,13.874.141.4A16.129,16.129,0,0,0,374.183,276.632Z" transform="translate(-286.426 -216.448)" fill="#455a64"/>
        <path id="Trazado_1283" data-name="Trazado 1283" d="M374.183,276.632l-.334-1.535c-3.967-18.034-7.134-19.317-12.45-21.787-5.191,4.509-4.308,12.176-4.308,12.176l4.635,13.874.141.4A16.129,16.129,0,0,0,374.183,276.632Z" transform="translate(-286.426 -216.448)" fill="#fff" opacity="0.3"/>
        <path id="Trazado_1284" data-name="Trazado 1284" d="M349.187,228.063a32.807,32.807,0,0,0,1.728-10.144c0-1.839-.185-3.849-1.483-5.191-1.55-1.587-4.2-1.572-6.184-.571a15.838,15.838,0,0,0-4.827,4.494,40.738,40.738,0,0,0,3.055,8.691,7.382,7.382,0,0,0,2.892,3.411A5.157,5.157,0,0,0,349.187,228.063Z" transform="translate(-281.615 -205.632)" fill="#455a64"/>
        <path id="Trazado_1285" data-name="Trazado 1285" d="M338.251,255.729c-2.662,1.683-6.118-1.439-3.025-5.992a.163.163,0,0,0,.037-.082v-7.586l10.04-5.539.23,10.137C344.457,249.8,340.564,254.26,338.251,255.729Z" transform="translate(-280.475 -212.111)" fill="#ffa8a7"/>
        <path id="Trazado_1286" data-name="Trazado 1286" d="M338.251,255.729c-2.662,1.683-6.118-1.439-3.025-5.992a.163.163,0,0,0,.037-.082v-7.586l10.04-5.539.23,10.137C344.457,249.8,340.564,254.26,338.251,255.729Z" transform="translate(-280.475 -212.111)" opacity="0.3"/>
        <path id="Trazado_1287" data-name="Trazado 1287" d="M340.861,244.494c-1.676.808-3.767,1.624-5.191,2.15v-4.575l10.04-5.539C345.651,241.55,343.649,243.145,340.861,244.494Z" transform="translate(-280.905 -212.111)" opacity="0.2"/>
        <path id="Trazado_1288" data-name="Trazado 1288" d="M323.8,217.76a85.172,85.172,0,0,0,.208,15,7.415,7.415,0,0,0,8.78,6.54c1.646-.341,3.218-.742,4.553-1.09A6.844,6.844,0,0,0,342.2,233.2l.371-1.542a3.152,3.152,0,0,0,3.8.89,4.249,4.249,0,0,0,2.41-3.27,3.931,3.931,0,0,0-.178-2.069,2.722,2.722,0,0,0-1.394-1.483,3.033,3.033,0,0,0-3.344.957,6.436,6.436,0,0,0-1.35,3.411,10.522,10.522,0,0,1-2.64-7.593,3.789,3.789,0,0,1-2.432-1.246,3.307,3.307,0,0,1-.623-2.469A13.682,13.682,0,0,1,323.8,217.76Z" transform="translate(-277.775 -207.26)" fill="#ffa8a7"/>
        <path id="Trazado_1289" data-name="Trazado 1289" d="M323.8,217.76a85.172,85.172,0,0,0,.208,15,7.415,7.415,0,0,0,8.78,6.54c1.646-.341,3.218-.742,4.553-1.09A6.844,6.844,0,0,0,342.2,233.2l.371-1.542a3.152,3.152,0,0,0,3.8.89,4.249,4.249,0,0,0,2.41-3.27,3.931,3.931,0,0,0-.178-2.069,2.722,2.722,0,0,0-1.394-1.483,3.033,3.033,0,0,0-3.344.957,6.436,6.436,0,0,0-1.35,3.411,10.522,10.522,0,0,1-2.64-7.593,3.789,3.789,0,0,1-2.432-1.246,3.307,3.307,0,0,1-.623-2.469A13.682,13.682,0,0,1,323.8,217.76Z" transform="translate(-277.775 -207.26)" opacity="0.3"/>
        <path id="Trazado_1290" data-name="Trazado 1290" d="M332.115,229.08l-3.485,4.227,3.2,1.127Z" transform="translate(-279.085 -210.186)" fill="#f28f8f"/>
        <path id="Trazado_1291" data-name="Trazado 1291" d="M332.115,229.08l-3.485,4.227,3.2,1.127Z" transform="translate(-279.085 -210.186)" opacity="0.3"/>
        <path id="Trazado_1292" data-name="Trazado 1292" d="M335.952,239.13l-2.692.823a1.661,1.661,0,0,0,1.817.838A1.483,1.483,0,0,0,335.952,239.13Z" transform="translate(-280.282 -212.783)" fill="#f28f8f"/>
        <path id="Trazado_1293" data-name="Trazado 1293" d="M335.952,239.13l-2.692.823a1.661,1.661,0,0,0,1.817.838A1.483,1.483,0,0,0,335.952,239.13Z" transform="translate(-280.282 -212.783)" opacity="0.4"/>
        <path id="Trazado_1294" data-name="Trazado 1294" d="M334.52,240.888a1.565,1.565,0,0,0,.882.052,1.357,1.357,0,0,0,.875-1.216,1.646,1.646,0,0,0-1.046.185A1.617,1.617,0,0,0,334.52,240.888Z" transform="translate(-280.607 -212.932)" fill="#f28f8f"/>
        <path id="Trazado_1295" data-name="Trazado 1295" d="M339.064,229.978a.957.957,0,1,1-.243-.692A.957.957,0,0,1,339.064,229.978Z" transform="translate(-281.288 -210.157)" fill="#263238"/>
        <path id="Trazado_1296" data-name="Trazado 1296" d="M328.264,228.981a.957.957,0,1,1-.9-1A.957.957,0,0,1,328.264,228.981Z" transform="translate(-278.496 -209.901)" fill="#263238"/>
        <path id="Trazado_1297" data-name="Trazado 1297" d="M327.206,224.033l-2.225,1.379a1.372,1.372,0,0,1,.5-1.483A1.6,1.6,0,0,1,327.206,224.033Z" transform="translate(-278.128 -208.802)" fill="#263238"/>
        <path id="Trazado_1298" data-name="Trazado 1298" d="M339,224.5l2.047,1.579a1.379,1.379,0,0,0-.334-1.483,1.654,1.654,0,0,0-1.713-.1Z" transform="translate(-281.765 -208.953)" fill="#263238"/>
        <path id="Trazado_1299" data-name="Trazado 1299" d="M336.123,214.783a3.322,3.322,0,0,1-.919,1.787,2.61,2.61,0,0,1-1.884.742,2.076,2.076,0,0,1-1.735-1,2.454,2.454,0,0,1-2.262,1,2.721,2.721,0,0,1-2.18-1.424,2.58,2.58,0,0,1-2.684,1.053,2.469,2.469,0,0,1-1.832-2.143,3.211,3.211,0,0,1-2.4-.341,2.366,2.366,0,0,1-1.142-2.076,1.9,1.9,0,0,1,1.483-1.743,2.492,2.492,0,0,1,.623-2.966,2.44,2.44,0,0,1,3.018-.067,1.921,1.921,0,0,1,1.135-1.7,1.891,1.891,0,0,1,2,.386,3.018,3.018,0,0,1,5.6-1.209,2.61,2.61,0,0,1,2.432-1.3,2.439,2.439,0,0,1,2.106,1.609,3.025,3.025,0,0,1,5.547,1.483,1.869,1.869,0,0,1,2.573.148,2.336,2.336,0,0,1,.215,2.677,3.085,3.085,0,0,1-2.358,1.431,2.432,2.432,0,0,1-4.182,2.4,1.8,1.8,0,0,1-1.149,1.913,1.683,1.683,0,0,1-2.01-.66Z" transform="translate(-276.619 -203.6)" fill="#263238"/>
      </g>
    </g>
  </g>
</svg>
